<?xml version="1.0" encoding="iso-8859-1"?>
<!-- Generator: Adobe Illustrator 26.0.1, SVG Export Plug-In . SVG Version: 6.00 Build 0)  -->
<svg version="1.1" xmlns="http://www.w3.org/2000/svg" xmlns:xlink="http://www.w3.org/1999/xlink" x="0px" y="0px"
	 viewBox="0 0 500 500" style="enable-background:new 0 0 500 500;" xml:space="preserve">
<g id="Grass">
	<g>
		<polyline style="fill:#FFFFFF;" points="199.019,585.197 333.744,624.277 204.087,570.739 340.152,604.854 208.487,556.47 
			345.881,584.754 212.126,542.501 350.759,563.872 214.903,528.982 354.559,542.049 216.722,516.105 356.948,519.132 
			217.505,504.141 357.45,494.965 217.229,493.411 355.402,469.499 215.974,484.254 349.958,442.963 213.933,476.844 
			340.269,416.112 211.297,470.986 325.956,390.379 208.991,467.373 317.835,379.273 207.48,465.471 308.749,368.761 
			205.771,463.652 299.092,359.247 203.443,461.534 289.559,351.098 199.87,458.666 281.132,344.599 194.258,454.465 
			274.995,340.026 185.81,448.012 272.354,337.94 174.201,437.767 273.636,339.302 160.882,422.119 277.071,344.265 
			149.701,402.033 279.591,350.103 143.27,381.614 280.624,356.142 141.884,339.465 280.116,361.06 151.976,304.657 
			281.305,358.639 165.784,279.243 286.204,351.118 179.714,259.864 294.271,340.814 192.714,244.066 304.682,328.577 
			204.265,230.642 316.896,314.263 213.675,219.308 330.637,296.717 219.766,210.917 345.478,272.895 221.004,208.915 
			358.09,236.094 219.721,219.824 354.639,185.623 222.577,231.668 345.785,165.483 225.903,237.557 333.863,148.576 
			228.724,240.934 321.44,136.078 229.43,241.601 310.355,127.34 227.407,240.168 301.437,121.295 222.564,237.026 295.173,117.275 
			214.766,231.939 292.264,115.32 203.611,223.677 293.768,116.661 188.969,209.271 299.859,124.295 174.15,184.974 
			305.936,139.154 167.248,154.867 306.897,153.64 169.706,127.289 304.436,164.525 177.828,105.143 301.63,170.319 187.796,88.919 
			300.227,172.308 197.833,76.841 300.443,172.104 207.48,67.398 302.002,170.712 216.701,59.66 304.591,168.682 225.572,53.068 
			307.963,166.308 234.164,47.29 311.937,163.753 242.53,42.118 316.387,161.105 250.708,37.416 321.222,158.416 		"/>
		<polyline style="fill:none;stroke:#00A651;stroke-miterlimit:10;" points="199.019,585.197 333.744,624.277 204.087,570.739 
			340.152,604.854 208.487,556.47 345.881,584.754 212.126,542.501 350.759,563.872 214.903,528.982 354.559,542.049 
			216.722,516.105 356.948,519.132 217.505,504.141 357.45,494.965 217.229,493.411 355.402,469.499 215.974,484.254 
			349.958,442.963 213.933,476.844 340.269,416.112 211.297,470.986 325.956,390.379 208.991,467.373 317.835,379.273 
			207.48,465.471 308.749,368.761 205.771,463.652 299.092,359.247 203.443,461.534 289.559,351.098 199.87,458.666 
			281.132,344.599 194.258,454.465 274.995,340.026 185.81,448.012 272.354,337.94 174.201,437.767 273.636,339.302 
			160.882,422.119 277.071,344.265 149.701,402.033 279.591,350.103 143.27,381.614 280.624,356.142 141.884,339.465 
			280.116,361.06 151.976,304.657 281.305,358.639 165.784,279.243 286.204,351.118 179.714,259.864 294.271,340.814 
			192.714,244.066 304.682,328.577 204.265,230.642 316.896,314.263 213.675,219.308 330.637,296.717 219.766,210.917 
			345.478,272.895 221.004,208.915 358.09,236.094 219.721,219.824 354.639,185.623 222.577,231.668 345.785,165.483 
			225.903,237.557 333.863,148.576 228.724,240.934 321.44,136.078 229.43,241.601 310.355,127.34 227.407,240.168 301.437,121.295 
			222.564,237.026 295.173,117.275 214.766,231.939 292.264,115.32 203.611,223.677 293.768,116.661 188.969,209.271 
			299.859,124.295 174.15,184.974 305.936,139.154 167.248,154.867 306.897,153.64 169.706,127.289 304.436,164.525 
			177.828,105.143 301.63,170.319 187.796,88.919 300.227,172.308 197.833,76.841 300.443,172.104 207.48,67.398 302.002,170.712 
			216.701,59.66 304.591,168.682 225.572,53.068 307.963,166.308 234.164,47.29 311.937,163.753 242.53,42.118 316.387,161.105 
			250.708,37.416 321.222,158.416 		"/>
	</g>
</g>
<g id="Layer_1">
</g>
</svg>
