<?xml version="1.0" encoding="iso-8859-1"?>
<!-- Generator: Adobe Illustrator 26.0.1, SVG Export Plug-In . SVG Version: 6.00 Build 0)  -->
<svg version="1.1" xmlns="http://www.w3.org/2000/svg" xmlns:xlink="http://www.w3.org/1999/xlink" x="0px" y="0px"
	 viewBox="0 0 500 500" style="enable-background:new 0 0 500 500;" xml:space="preserve">
<g id="Lava">
	<g>
		<g>
			<path style="fill:#4852A3;" d="M2.542,150.468c15.6,2.155,31.2,4.311,46.8,6.466c24.883,3.438,49.766,6.876,74.648,10.313
				c5.735,0.792,11.471,1.585,17.206,2.377c3.084,0.426,4.555-4.107,1.329-4.821c-15.376-3.405-30.752-6.811-46.128-10.216
				c-24.525-5.432-49.05-10.864-73.576-16.295c-5.653-1.252-11.306-2.504-16.959-3.756c-3.129-0.693-4.47,4.067-1.329,4.821
				c15.313,3.68,30.626,7.36,45.939,11.039c24.425,5.869,48.849,11.739,73.274,17.608c5.63,1.353,11.26,2.706,16.889,4.059
				c3.14,0.754,4.387-3.83,1.329-4.821c-14.981-4.857-29.963-9.714-44.944-14.571c-23.896-7.747-47.792-15.495-71.688-23.242
				c-5.508-1.786-11.016-3.571-16.524-5.357c-3.076-0.997-4.357,3.791-1.329,4.821c14.91,5.073,29.82,10.146,44.73,15.219
				c23.782,8.092,47.564,16.184,71.347,24.275c5.482,1.865,10.963,3.73,16.445,5.595c2.64,0.898,4.549-3.455,1.926-4.569
				c-14.495-6.16-28.99-12.32-43.485-18.481c-23.12-9.826-46.24-19.652-69.361-29.477c-5.329-2.265-10.658-4.53-15.987-6.794
				c-2.917-1.24-5.48,3.024-2.524,4.317c14.43,6.311,28.861,12.623,43.291,18.934c23.017,10.067,46.034,20.134,69.051,30.201
				c5.305,2.32,10.611,4.641,15.916,6.961c2.874,1.257,5.436-2.793,2.524-4.317c-13.955-7.302-27.911-14.604-41.866-21.906
				c-22.26-11.647-44.519-23.294-66.779-34.941c-5.131-2.685-10.261-5.369-15.392-8.054c-2.846-1.489-5.372,2.804-2.524,4.317
				c13.91,7.39,27.819,14.78,41.729,22.169c22.187,11.787,44.373,23.574,66.56,35.361c5.114,2.717,10.228,5.434,15.342,8.151
				c2.842,1.51,5.268-2.619,2.524-4.317c-13.395-8.286-26.79-16.573-40.185-24.859c-21.366-13.217-42.731-26.435-64.097-39.652
				c-4.925-3.047-9.849-6.093-14.774-9.14c-2.745-1.698-5.253,2.62-2.524,4.317c13.377,8.317,26.753,16.634,40.13,24.951
				c21.336,13.266,42.672,26.532,64.008,39.798c4.918,3.058,9.836,6.115,14.754,9.173c2.776,1.726,5.103-2.483,2.524-4.317
				c-12.838-9.127-25.675-18.254-38.513-27.381c-20.477-14.558-40.953-29.116-61.43-43.674c-4.72-3.356-9.44-6.711-14.159-10.067
				c-0.841,1.439-1.682,2.878-2.524,4.317c12.851,9.109,25.702,18.217,38.553,27.326c20.498,14.529,40.996,29.057,61.494,43.586
				c4.725,3.349,9.449,6.698,14.174,10.046c2.292,1.624,5.251-2.149,3.03-3.926c-12.299-9.841-24.598-19.683-36.897-29.524
				c-19.618-15.698-39.235-31.395-58.853-47.093c-4.522-3.618-9.043-7.236-13.565-10.855c-1.179,1.179-2.357,2.357-3.536,3.536
				c12.346,9.783,24.692,19.565,37.038,29.348c19.693,15.604,39.385,31.208,59.078,46.811c4.539,3.597,9.078,7.193,13.617,10.79
				c2.462,1.951,5.99-1.36,3.536-3.536c-11.789-10.448-23.577-20.896-35.366-31.344c-18.803-16.665-37.607-33.33-56.41-49.995
				c-4.334-3.841-8.668-7.682-13.002-11.524c-1.179,1.179-2.357,2.357-3.536,3.536c11.869,10.357,23.738,20.713,35.608,31.07
				c18.932,16.519,37.864,33.038,56.796,49.558c4.364,3.808,8.727,7.615,13.091,11.423c2.402,2.096,5.871-1.272,3.536-3.536
				c-11.311-10.963-22.622-21.927-33.933-32.89c-18.042-17.487-36.083-34.974-54.125-52.461c-4.159-4.031-8.317-8.061-12.476-12.092
				c-1.179,1.179-2.357,2.357-3.536,3.536c11.424,10.846,22.848,21.692,34.272,32.538c18.222,17.3,36.443,34.6,54.665,51.9
				c4.2,3.988,8.4,7.975,12.6,11.963c2.336,2.218,5.76-1.202,3.536-3.536c-10.869-11.402-21.737-22.805-32.606-34.207
				c-17.336-18.187-34.672-36.375-52.008-54.562c-3.996-4.192-7.992-8.384-11.988-12.576c-1.179,1.179-2.357,2.357-3.536,3.536
				C54.42,83.11,65.432,94.375,76.443,105.639c17.564,17.967,35.129,35.935,52.693,53.902c4.048,4.141,8.097,8.283,12.145,12.424
				c2.297,2.35,5.523-1.09,3.536-3.536c-9.943-12.232-19.887-24.464-29.83-36.697c-15.86-19.511-31.72-39.022-47.581-58.533
				c-3.656-4.497-7.311-8.994-10.967-13.492c-1.179,1.179-2.357,2.357-3.536,3.536C63.416,74.992,73.928,86.739,84.44,98.486
				c16.767,18.738,33.535,37.475,50.302,56.213c3.865,4.319,7.73,8.638,11.594,12.957c1.872,2.092,5.53-0.667,3.926-3.03
				c-8.855-13.042-17.711-26.084-26.566-39.126c-14.125-20.802-28.249-41.605-42.374-62.407c-3.256-4.795-6.511-9.59-9.767-14.385
				c-1.439,0.841-2.878,1.682-4.317,2.524c9.487,12.591,18.973,25.181,28.46,37.772c15.131,20.083,30.263,40.165,45.394,60.248
				c3.488,4.629,6.975,9.258,10.463,13.887c1.885,2.502,5.946,0.359,4.317-2.524c-7.753-13.726-15.507-27.452-23.26-41.178
				c-12.367-21.894-24.734-43.787-37.101-65.681c-2.851-5.046-5.701-10.093-8.552-15.139c-1.439,0.841-2.878,1.682-4.317,2.524
				c8.447,13.311,16.894,26.622,25.341,39.932c13.473,21.231,26.946,42.463,40.42,63.694c3.105,4.894,6.211,9.787,9.316,14.681
				c1.749,2.756,5.662,0.363,4.317-2.524c-6.658-14.29-13.317-28.579-19.975-42.869c-10.62-22.793-21.241-45.585-31.861-68.378
				c-2.448-5.254-4.896-10.507-7.344-15.761c-1.439,0.841-2.878,1.682-4.317,2.524c7.412,13.914,14.823,27.828,22.235,41.743
				c11.822,22.194,23.644,44.387,35.466,66.581c2.725,5.116,5.45,10.231,8.175,15.347c1.305,2.449,5.587,0.76,4.569-1.926
				c-5.585-14.743-11.17-29.485-16.755-44.228c-8.908-23.515-17.816-47.03-26.725-70.546c-2.053-5.42-4.107-10.84-6.16-16.26
				c-1.523,0.642-3.046,1.284-4.569,1.926c6.393,14.411,12.787,28.822,19.18,43.232c10.198,22.986,20.395,45.972,30.593,68.958
				c2.351,5.298,4.701,10.596,7.052,15.894c1.156,2.605,5.374,0.749,4.569-1.926c-4.541-15.097-9.083-30.194-13.624-45.291
				c-7.244-24.08-14.488-48.161-21.732-72.241c-1.67-5.55-3.339-11.101-5.009-16.651c-1.607,0.443-3.214,0.886-4.821,1.329
				c5.399,14.812,10.798,29.625,16.197,44.437c8.611,23.626,17.223,47.253,25.834,70.879c1.985,5.446,3.97,10.892,5.955,16.337
				c1.092,2.995,5.551,1.847,4.821-1.329c-3.532-15.365-7.064-30.73-10.595-46.095c-5.633-24.508-11.267-49.015-16.9-73.523
				c-1.298-5.649-2.597-11.298-3.895-16.947c-1.607,0.443-3.214,0.886-4.821,1.329c4.431,15.13,8.862,30.261,13.293,45.391
				c7.068,24.134,14.135,48.267,21.203,72.401c1.629,5.563,3.258,11.125,4.887,16.688c0.922,3.149,5.333,1.788,4.821-1.329
				c-2.555-15.557-5.111-31.115-7.666-46.672c-4.076-24.815-8.152-49.629-12.228-74.444c-0.94-5.72-1.879-11.439-2.819-17.159
				c-1.607,0.443-3.214,0.886-4.821,1.329c3.489,15.375,6.977,30.75,10.466,46.125c5.565,24.524,11.129,49.048,16.694,73.572
				c1.283,5.653,2.565,11.305,3.848,16.958c0.611,2.695,5.202,2.174,4.911-0.665c-1.609-15.684-3.219-31.367-4.829-47.051
				c-2.567-25.016-5.134-50.032-7.702-75.048c-0.592-5.766-1.183-11.532-1.775-17.298c-1.637,0.222-3.274,0.443-4.911,0.665
				c2.569,15.555,5.137,31.111,7.706,46.666c4.097,24.812,8.194,49.623,12.291,74.435c0.944,5.719,1.889,11.438,2.833,17.157
				c0.46,2.784,5.033,2.127,4.911-0.665c-0.689-15.751-1.378-31.502-2.067-47.253c-1.099-25.124-2.197-50.247-3.296-75.371
				c-0.253-5.791-0.507-11.582-0.76-17.373c-1.667,0-3.333,0-5,0c1.666,15.678,3.331,31.356,4.997,47.034
				c2.657,25.007,5.314,50.014,7.971,75.021c0.612,5.764,1.225,11.528,1.837,17.292c0.333,3.131,4.956,3.29,5,0
				c0.213-15.765,0.426-31.529,0.639-47.294c0.34-25.145,0.679-50.291,1.019-75.436c0.078-5.796,0.157-11.592,0.235-17.388
				c-1.667,0-3.333,0-5,0c0.289,15.749,0.578,31.498,0.867,47.246c0.461,25.12,0.922,50.24,1.384,75.36
				c0.106,5.79,0.213,11.58,0.319,17.37c0.059,3.213,5.027,3.226,5,0c-0.132-15.751-0.263-31.502-0.395-47.253
				c-0.21-25.123-0.42-50.247-0.629-75.37c-0.048-5.791-0.097-11.582-0.145-17.372c-0.027-3.216-5.021-3.224-5,0
				c0.104,15.751,0.208,31.502,0.312,47.253c0.166,25.124,0.331,50.247,0.497,75.371c0.038,5.791,0.076,11.582,0.115,17.373
				c0.021,3.217,4.976,3.222,5,0c0.116-15.751,0.233-31.502,0.349-47.253c0.186-25.123,0.372-50.247,0.557-75.37
				c0.043-5.791,0.086-11.582,0.128-17.372c0.024-3.219-4.958-3.22-5,0c-0.207,15.75-0.414,31.5-0.62,47.25
				c-0.33,25.122-0.66,50.243-0.99,75.365c-0.076,5.79-0.152,11.581-0.228,17.371c-0.042,3.224,4.9,3.212,5,0
				c0.491-15.743,0.982-31.487,1.472-47.23c0.783-25.111,1.566-50.223,2.349-75.334c0.18-5.788,0.361-11.576,0.541-17.364
				c0.1-3.223-4.868-3.209-5,0c-0.646,15.738-1.292,31.475-1.938,47.213c-1.03,25.102-2.06,50.205-3.09,75.307
				c-0.237,5.786-0.475,11.572-0.712,17.358c-0.133,3.231,4.798,3.191,5,0c0.996-15.719,1.992-31.439,2.988-47.158
				c1.589-25.073,3.177-50.146,4.766-75.219c0.366-5.779,0.732-11.558,1.099-17.338c0.204-3.224-4.753-3.184-5,0
				c-1.219,15.703-2.438,31.407-3.657,47.11c-1.944,25.048-3.889,50.095-5.833,75.143c-0.448,5.773-0.896,11.547-1.345,17.32
				c-0.251,3.235,4.67,3.152,5,0c1.639-15.665,3.278-31.33,4.916-46.995c2.614-24.986,5.228-49.973,7.842-74.959
				c0.602-5.759,1.205-11.518,1.807-17.278c0.337-3.219-4.612-3.137-5,0c-1.934,15.631-3.868,31.262-5.802,46.893
				c-3.085,24.932-6.169,49.864-9.254,74.797c-0.711,5.747-1.422,11.493-2.133,17.24c-0.343,2.77,4.477,3.448,4.911,0.665
				c2.426-15.562,4.853-31.124,7.279-46.686c3.87-24.822,7.74-49.644,11.611-74.466c0.892-5.721,1.784-11.443,2.676-17.164
				c0.487-3.126-4.245-4.522-4.821-1.329c-2.797,15.499-5.594,30.999-8.391,46.498c-4.461,24.722-8.923,49.444-13.384,74.166
				c-1.028,5.698-2.057,11.397-3.085,17.095c-0.564,3.123,4.127,4.505,4.821,1.329c3.365-15.386,6.729-30.772,10.094-46.157
				c5.367-24.541,10.733-49.082,16.1-73.623c1.237-5.657,2.474-11.313,3.711-16.97c0.684-3.128-4.039-4.468-4.821-1.329
				c-3.811,15.281-7.622,30.562-11.432,45.843c-6.078,24.374-12.157,48.748-18.235,73.122c-1.401,5.618-2.802,11.236-4.203,16.854
				c-0.779,3.124,3.911,4.419,4.821,1.329c4.449-15.107,8.897-30.214,13.346-45.322c7.096-24.097,14.192-48.193,21.288-72.29
				c1.636-5.554,3.271-11.108,4.907-16.662c0.915-3.107-3.813-4.365-4.821-1.329c-4.964,14.945-9.929,29.891-14.893,44.836
				c-7.918,23.838-15.836,47.677-23.755,71.515c-1.825,5.495-3.65,10.989-5.475,16.484c-1.029,3.098,3.686,4.277,4.821,1.329
				c5.662-14.695,11.324-29.39,16.986-44.084c9.031-23.439,18.062-46.878,27.093-70.317c2.082-5.403,4.163-10.805,6.245-16.208
				c1.009-2.618-3.448-4.528-4.569-1.926c-6.232,14.462-12.465,28.923-18.697,43.385c-9.941,23.067-19.882,46.134-29.823,69.201
				c-2.291,5.317-4.583,10.634-6.874,15.95c-1.242,2.883,2.868,5.461,4.317,2.524c6.995-14.175,13.99-28.35,20.985-42.524
				c11.102-22.498,22.205-44.996,33.307-67.494c2.548-5.164,5.097-10.328,7.645-15.492c1.411-2.86-2.756-5.371-4.317-2.524
				c-7.599,13.86-15.197,27.72-22.796,41.58c-12.061,21.999-24.121,43.997-36.182,65.996c-2.768,5.049-5.537,10.099-8.305,15.148
				c-1.549,2.826,2.627,5.266,4.317,2.524c8.264-13.405,16.527-26.811,24.791-40.216c13.181-21.382,26.362-42.764,39.543-64.147
				c3.038-4.928,6.076-9.857,9.114-14.785c1.703-2.763-2.54-5.176-4.317-2.524c-8.766,13.083-17.531,26.166-26.297,39.249
				c-13.982,20.868-27.963,41.736-41.945,62.604c-3.223,4.81-6.445,9.62-9.668,14.43c-1.819,2.715,2.446,5.061,4.317,2.524
				c9.348-12.674,18.697-25.347,28.045-38.021c14.911-20.215,29.822-40.43,44.733-60.645c3.437-4.659,6.874-9.319,10.311-13.978
				c1.669-2.263-2.163-5.256-3.926-3.03c-9.777,12.346-19.554,24.693-29.331,37.039c-15.595,19.693-31.189,39.386-46.784,59.079
				c-3.595,4.539-7.189,9.078-10.784,13.617c-1.955,2.468,1.403,6.012,3.536,3.536c10.277-11.934,20.554-23.867,30.831-35.801
				c16.392-19.035,32.785-38.069,49.177-57.104c3.778-4.387,7.557-8.775,11.335-13.162c2.08-2.415-1.344-5.931-3.536-3.536
				c-10.63,11.621-21.26,23.241-31.891,34.862c-16.956,18.535-33.911,37.071-50.867,55.606c-3.908,4.272-7.816,8.545-11.725,12.817
				c-2.164,2.366,1.264,5.842,3.536,3.536c11.05-11.223,22.1-22.445,33.15-33.668c17.625-17.901,35.25-35.801,52.876-53.702
				c4.062-4.126,8.125-8.252,12.188-12.378c2.262-2.297-1.218-5.773-3.536-3.536c-11.332,10.938-22.664,21.877-33.996,32.815
				c-18.075,17.447-36.15,34.894-54.225,52.341c-4.166,4.021-8.332,8.043-12.499,12.064c-2.329,2.248,1.16,5.685,3.536,3.536
				c11.678-10.568,23.356-21.137,35.034-31.705c18.627-16.857,37.254-33.714,55.881-50.57c4.293-3.885,8.587-7.771,12.88-11.656
				c2.402-2.173-1.123-5.629-3.536-3.536c-11.896,10.322-23.793,20.644-35.689,30.967c-18.975,16.464-37.951,32.929-56.926,49.393
				c-4.374,3.795-8.747,7.59-13.121,11.385c-2.454,2.129,1.083,5.548,3.536,3.536c12.178-9.989,24.355-19.978,36.533-29.967
				c19.424-15.933,38.848-31.866,58.272-47.799c4.477-3.672,8.954-7.345,13.431-11.017c2.504-2.054-1.052-5.505-3.536-3.536
				c-12.341,9.786-24.683,19.573-37.024,29.359c-19.685,15.61-39.37,31.22-59.055,46.83c-4.537,3.598-9.075,7.196-13.612,10.794
				c-2.2,1.745,0.761,5.64,3.03,3.926c12.568-9.494,25.136-18.988,37.703-28.483c20.046-15.144,40.092-30.287,60.138-45.431
				c4.621-3.491,9.241-6.981,13.862-10.472c2.525-1.908,0.085-6.237-2.524-4.317c-12.685,9.337-25.37,18.675-38.055,28.012
				c-20.233,14.894-40.466,29.787-60.699,44.681c-4.664,3.433-9.327,6.866-13.991,10.299c-2.55,1.877-0.129,6.191,2.524,4.317
				c12.864-9.089,25.729-18.178,38.593-27.266c20.519-14.497,41.038-28.994,61.558-43.491c4.73-3.341,9.459-6.683,14.189-10.024
				c2.602-1.838,0.135-6.162-2.524-4.317c-12.941,8.979-25.883,17.958-38.824,26.937c-20.642,14.322-41.284,28.643-61.926,42.965
				c-4.758,3.301-9.516,6.602-14.274,9.903c-2.618,1.816-0.169,6.123,2.524,4.317c13.081-8.775,26.161-17.55,39.242-26.325
				c20.864-13.996,41.728-27.993,62.593-41.989c4.809-3.226,9.618-6.452,14.427-9.678c2.657-1.782,0.17-6.106-2.524-4.317
				c-13.122,8.713-26.245,17.425-39.367,26.138c-20.931,13.897-41.862,27.794-62.792,41.691c-4.824,3.203-9.649,6.406-14.473,9.609
				c-2.664,1.769-0.195,6.076,2.524,4.317c13.226-8.555,26.451-17.11,39.677-25.665c21.095-13.646,42.191-27.291,63.286-40.937
				c4.862-3.145,9.725-6.291,14.587-9.436c2.692-1.741,0.191-6.069-2.524-4.317c-13.235,8.541-26.47,17.082-39.704,25.623
				c-21.11,13.623-42.22,27.246-63.33,40.869c-4.866,3.14-9.732,6.28-14.597,9.42c-2.692,1.737-0.208,6.049,2.524,4.317
				c13.305-8.432,26.609-16.863,39.914-25.295c21.222-13.449,42.443-26.898,63.665-40.347c4.891-3.1,9.783-6.2,14.674-9.3
				c-0.841-1.439-1.682-2.878-2.524-4.317c-13.21,8.582-26.419,17.164-39.629,25.747c-21.07,13.689-42.139,27.378-63.209,41.067
				c-4.856,3.155-9.713,6.31-14.569,9.466c-2.683,1.743-0.242,6.007,2.524,4.317c13.443-8.211,26.886-16.423,40.329-24.634
				c21.442-13.098,42.885-26.195,64.327-39.293c4.942-3.019,9.885-6.038,14.827-9.057c-0.841-1.439-1.682-2.878-2.524-4.317
				c-13.245,8.528-26.489,17.056-39.734,25.584c-21.126,13.602-42.252,27.205-63.378,40.807c-4.869,3.135-9.739,6.271-14.608,9.406
				c-2.692,1.733-0.241,6.004,2.524,4.317c13.447-8.205,26.894-16.41,40.341-24.616c21.448-13.088,42.897-26.175,64.345-39.263
				c4.944-3.017,9.888-6.033,14.831-9.05c-0.841-1.439-1.682-2.878-2.524-4.317c-13.217,8.57-26.435,17.14-39.652,25.711
				c-21.082,13.67-42.164,27.34-63.247,41.009c-4.859,3.151-9.719,6.302-14.578,9.452c-2.685,1.741-0.23,6.023,2.524,4.317
				c13.391-8.297,26.781-16.593,40.172-24.89c21.359-13.234,42.717-26.467,64.076-39.701c4.923-3.05,9.846-6.101,14.769-9.151
				c-0.841-1.439-1.682-2.878-2.524-4.317c-13.127,8.708-26.254,17.416-39.38,26.125c-20.938,13.89-41.875,27.78-62.813,41.67
				c-4.826,3.202-9.652,6.403-14.478,9.605c-2.663,1.767-0.206,6.063,2.524,4.317c13.272-8.485,26.544-16.97,39.816-25.456
				c21.169-13.534,42.338-27.068,63.507-40.603c4.879-3.12,9.759-6.239,14.638-9.359c-0.841-1.439-1.682-2.878-2.524-4.317
				c-12.969,8.941-25.938,17.882-38.908,26.823c-20.686,14.261-41.373,28.522-62.059,42.783c-4.768,3.287-9.536,6.574-14.304,9.861
				c-2.625,1.81-0.168,6.121,2.524,4.317c13.086-8.77,26.171-17.539,39.257-26.308c20.872-13.988,41.744-27.975,62.616-41.963
				c4.811-3.224,9.622-6.448,14.433-9.672c-0.841-1.439-1.682-2.878-2.524-4.317c-12.738,9.267-25.476,18.534-38.214,27.8
				c-20.318,14.781-40.636,29.562-60.954,44.343c-4.683,3.407-9.366,6.814-14.05,10.221c-2.57,1.87-0.111,6.197,2.524,4.317
				c12.824-9.148,25.647-18.295,38.471-27.443c20.454-14.591,40.909-29.182,61.363-43.773c4.715-3.363,9.429-6.726,14.144-10.089
				c-1.01-1.309-2.02-2.618-3.03-3.926c-12.424,9.683-24.849,19.366-37.273,29.049c-19.817,15.445-39.635,30.889-59.452,46.334
				c-4.568,3.56-9.136,7.12-13.703,10.68c-2.215,1.726,0.778,5.662,3.03,3.926c12.476-9.616,24.952-19.232,37.428-28.848
				c19.9-15.338,39.799-30.676,59.699-46.014c4.587-3.535,9.174-7.071,13.76-10.606c-1.01-1.309-2.02-2.618-3.03-3.926
				c-12.017,10.184-24.034,20.368-36.05,30.552c-19.167,16.244-38.334,32.488-57.502,48.732c-4.418,3.744-8.836,7.488-13.254,11.232
				c-2.459,2.084,1.092,5.601,3.536,3.536c12.03-10.167,24.061-20.335,36.091-30.502c19.189-16.217,38.378-32.435,57.567-48.652
				c4.423-3.738,8.846-7.476,13.269-11.214c-1.178-1.179-2.357-2.357-3.536-3.536c-11.503,10.76-23.006,21.52-34.51,32.28
				c-18.348,17.163-36.696,34.326-55.044,51.489c-4.229,3.956-8.458,7.912-12.687,11.868c1.179,1.179,2.357,2.357,3.536,3.536
				c11.475-10.79,22.95-21.579,34.425-32.369c18.303-17.21,36.606-34.42,54.91-51.63c4.219-3.967,8.438-7.934,12.656-11.901
				c-1.178-1.179-2.357-2.357-3.536-3.536c-10.873,11.396-21.746,22.792-32.62,34.187c-17.343,18.177-34.686,36.354-52.029,54.53
				c-3.998,4.19-7.995,8.379-11.993,12.569c1.179,1.178,2.357,2.357,3.536,3.536c10.801-11.464,21.601-22.928,32.402-34.393
				c17.227-18.286,34.455-36.572,51.682-54.858c3.971-4.215,7.942-8.43,11.913-12.644c-1.178-1.179-2.357-2.357-3.536-3.536
				c-10.12,12.069-20.241,24.137-30.361,36.206c-16.142,19.25-32.285,38.5-48.427,57.75c-3.721,4.437-7.442,8.874-11.162,13.311
				c1.179,1.179,2.357,2.357,3.536,3.536c10.004-12.165,20.009-24.33,30.013-36.494c15.957-19.403,31.914-38.807,47.872-58.21
				c3.678-4.472,7.356-8.945,11.034-13.417c-1.309-1.01-2.618-2.02-3.926-3.03c-9.19,12.792-18.379,25.583-27.569,38.375
				c-14.658,20.403-29.315,40.806-43.973,61.209c-3.379,4.703-6.757,9.406-10.136,14.108c1.439,0.841,2.878,1.682,4.317,2.524
				c9.084-12.867,18.168-25.734,27.252-38.601c14.489-20.523,28.979-41.047,43.468-61.57c3.34-4.731,6.679-9.461,10.019-14.192
				c-1.439-0.841-2.878-1.682-4.317-2.524c-8.264,13.408-16.529,26.817-24.793,40.225c-13.182,21.387-26.364,42.774-39.546,64.161
				c-3.038,4.93-6.077,9.859-9.115,14.789c1.439,0.841,2.878,1.682,4.317,2.524c8.196-13.451,16.391-26.902,24.587-40.353
				c13.072-21.455,26.145-42.909,39.217-64.364c3.013-4.945,6.026-9.89,9.039-14.836c-1.439-0.841-2.878-1.682-4.317-2.524
				c-7.387,13.912-14.774,27.823-22.161,41.735c-11.783,22.189-23.565,44.379-35.348,66.568c-2.716,5.115-5.432,10.229-8.147,15.344
				c1.439,0.841,2.878,1.682,4.317,2.524c7.363-13.924,14.726-27.849,22.089-41.773c11.744-22.21,23.489-44.42,35.233-66.63
				c2.707-5.119,5.414-10.239,8.121-15.358c-1.439-0.841-2.878-1.682-4.317-2.524c-6.577,14.312-13.155,28.625-19.732,42.937
				c-10.491,22.829-20.983,45.658-31.474,68.487c-2.418,5.262-4.836,10.524-7.255,15.786c-1.334,2.902,2.968,5.447,4.317,2.524
				c6.603-14.301,13.205-28.602,19.808-42.903c10.531-22.811,21.063-45.622,31.594-68.433c2.427-5.258,4.855-10.516,7.282-15.773
				c-1.523-0.642-3.046-1.284-4.569-1.926c-5.848,14.626-11.696,29.252-17.544,43.878c-9.328,23.329-18.655,46.658-27.983,69.988
				c-2.15,5.377-4.3,10.755-6.45,16.132c-1.197,2.993,3.627,4.272,4.821,1.329c5.924-14.596,11.847-29.192,17.771-43.788
				c9.448-23.281,18.897-46.562,28.345-69.843c2.178-5.366,4.356-10.732,6.533-16.098c-1.607-0.443-3.214-0.886-4.821-1.329
				c-5.204,14.868-10.409,29.735-15.613,44.603c-8.301,23.714-16.602,47.429-24.903,71.143c-1.913,5.466-3.827,10.932-5.74,16.398
				c-1.067,3.049,3.741,4.334,4.821,1.329c5.33-14.823,10.66-29.646,15.99-44.47c8.501-23.644,17.003-47.287,25.504-70.931
				c1.96-5.45,3.919-10.899,5.879-16.349c-1.607-0.443-3.214-0.886-4.821-1.329c-4.648,15.051-9.297,30.102-13.945,45.153
				c-7.415,24.007-14.829,48.014-22.244,72.02c-1.709,5.533-3.418,11.067-5.127,16.6c-0.953,3.086,3.84,4.382,4.821,1.329
				c4.822-14.996,9.645-29.992,14.467-44.989c7.692-23.92,15.384-47.839,23.076-71.759c1.773-5.513,3.546-11.027,5.319-16.54
				c-1.607-0.443-3.214-0.886-4.821-1.329c-4.18,15.188-8.36,30.376-12.54,45.564c-6.667,24.225-13.334,48.451-20.002,72.676
				c-1.537,5.584-3.074,11.168-4.61,16.751c-0.856,3.109,3.923,4.418,4.821,1.329c4.4-15.126,8.801-30.251,13.201-45.377
				c7.019-24.126,14.038-48.252,21.057-72.378c1.618-5.561,3.236-11.122,4.854-16.683c-1.607-0.443-3.214-0.886-4.821-1.329
				c-3.797,15.288-7.594,30.576-11.392,45.865c-6.057,24.385-12.113,48.771-18.17,73.156c-1.396,5.621-2.792,11.241-4.188,16.862
				c-0.775,3.121,3.99,4.444,4.821,1.329c4.063-15.22,8.125-30.44,12.188-45.66c6.48-24.276,12.96-48.553,19.44-72.829
				c1.494-5.596,2.987-11.191,4.481-16.787c-1.607-0.443-3.214-0.886-4.821-1.329c-3.499,15.359-6.998,30.719-10.497,46.078
				c-5.581,24.499-11.162,48.997-16.743,73.496c-1.286,5.647-2.573,11.294-3.859,16.94c-0.712,3.127,4.041,4.463,4.821,1.329
				c3.808-15.286,7.616-30.571,11.424-45.857c6.074-24.381,12.148-48.763,18.222-73.144c1.4-5.62,2.8-11.24,4.2-16.859
				c-1.607-0.443-3.214-0.886-4.821-1.329c-2.796,15.514-5.592,31.028-8.388,46.542c-4.46,24.745-8.919,49.491-13.379,74.236
				c-1.028,5.704-2.056,11.407-3.084,17.111c-0.562,3.116,4.035,4.499,4.821,1.329c3.797-15.3,7.594-30.6,11.391-45.899
				c6.056-24.404,12.112-48.808,18.168-73.211c1.396-5.625,2.792-11.25,4.188-16.875c-1.607-0.443-3.214-0.886-4.821-1.329
				c-2.299,15.595-4.599,31.19-6.898,46.786c-3.668,24.875-7.335,49.75-11.003,74.625c-0.845,5.734-1.691,11.467-2.536,17.201
				c-0.457,3.097,4.132,4.542,4.821,1.329c3.308-15.413,6.615-30.826,9.923-46.239c5.276-24.584,10.552-49.169,15.827-73.753
				c1.216-5.667,2.432-11.333,3.648-17c-1.637-0.222-3.274-0.443-4.911-0.665c-1.802,15.66-3.605,31.321-5.407,46.981
				c-2.875,24.979-5.75,49.958-8.625,74.937c-0.663,5.758-1.325,11.515-1.988,17.273c-0.32,2.779,4.408,3.432,4.911,0.665
				c2.817-15.51,5.634-31.02,8.45-46.53c4.493-24.739,8.986-49.479,13.478-74.218c1.036-5.702,2.071-11.405,3.107-17.107
				c-1.637-0.222-3.274-0.443-4.911-0.665c-1.305,15.71-2.61,31.419-3.916,47.129c-2.082,25.058-4.164,50.115-6.246,75.173
				c-0.48,5.776-0.96,11.551-1.44,17.327c-0.23,2.774,4.494,3.46,4.911,0.665c2.324-15.592,4.649-31.183,6.973-46.775
				c3.707-24.869,7.415-49.738,11.122-74.608c0.855-5.732,1.709-11.464,2.564-17.197c-1.637-0.222-3.274-0.443-4.911-0.665
				c-0.808,15.743-1.615,31.486-2.423,47.229c-1.288,25.111-2.576,50.222-3.865,75.333c-0.297,5.788-0.594,11.576-0.891,17.364
				c-0.168,3.276,4.636,3.117,5,0c1.83-15.657,3.661-31.314,5.491-46.972c2.919-24.974,5.839-49.948,8.758-74.922
				c0.673-5.756,1.346-11.513,2.019-17.269c-1.667,0-3.333,0-5,0c-0.31,15.761-0.62,31.522-0.929,47.282
				c-0.494,25.139-0.988,50.278-1.482,75.417c-0.114,5.794-0.228,11.589-0.342,17.383c-0.064,3.259,4.731,3.161,5,0
				c1.335-15.707,2.669-31.415,4.004-47.122c2.129-25.054,4.258-50.107,6.387-75.161c0.491-5.775,0.981-11.55,1.472-17.324
				c-1.667,0-3.333,0-5,0c0.188,15.763,0.377,31.525,0.565,47.288c0.301,25.142,0.601,50.284,0.902,75.427
				c0.069,5.795,0.139,11.59,0.208,17.385c0.039,3.235,4.83,3.2,5,0c0.838-15.742,1.675-31.483,2.513-47.225
				c1.336-25.108,2.672-50.217,4.008-75.325c0.308-5.787,0.616-11.575,0.924-17.362c-1.667,0-3.333,0-5,0
				c0.687,15.749,1.374,31.498,2.061,47.247c1.096,25.12,2.191,50.24,3.287,75.36c0.253,5.79,0.505,11.58,0.758,17.37
				c0.14,3.205,4.931,3.232,5,0c0.339-15.76,0.677-31.52,1.016-47.281c0.54-25.138,1.081-50.276,1.621-75.415
				c0.125-5.794,0.249-11.588,0.374-17.383c-1.667,0-3.333,0-5,0c1.186,15.719,2.371,31.438,3.557,47.158
				c1.891,25.073,3.782,50.146,5.674,75.218c0.436,5.779,0.872,11.558,1.308,17.337c0.239,3.168,5.033,3.258,5,0
				c-0.162-15.763-0.323-31.526-0.485-47.289c-0.258-25.143-0.516-50.285-0.773-75.428c-0.059-5.795-0.119-11.591-0.178-17.386
				c-1.667,0-3.333,0-5,0c1.685,15.674,3.37,31.347,5.054,47.021c2.687,25,5.375,50,8.062,75c0.619,5.762,1.239,11.525,1.858,17.287
				c0.336,3.125,5.138,3.277,5,0c-0.664-15.75-1.327-31.5-1.991-47.25c-1.059-25.122-2.117-50.243-3.176-75.365
				c-0.244-5.79-0.488-11.581-0.732-17.371c-1.637,0.222-3.274,0.443-4.911,0.665c2.184,15.612,4.368,31.224,6.553,46.835
				c3.484,24.901,6.968,49.803,10.452,74.704c0.803,5.74,1.606,11.479,2.409,17.219c0.386,2.762,5.198,2.14,4.911-0.665
				c-1.606-15.669-3.212-31.339-4.818-47.008c-2.562-24.993-5.124-49.987-7.686-74.98c-0.591-5.761-1.181-11.522-1.772-17.282
				c-0.325-3.168-5.323-3.206-5,0c1.578,15.672,3.155,31.344,4.733,47.017c2.516,24.998,5.033,49.996,7.549,74.993
				c0.58,5.762,1.16,11.524,1.74,17.286c0.318,3.16,5.283,3.223,5,0c-1.378-15.691-2.755-31.382-4.133-47.073
				c-2.197-25.028-4.395-50.055-6.592-75.083c-0.507-5.769-1.013-11.538-1.519-17.306c-0.279-3.175-5.26-3.219-5,0
				c1.267,15.7,2.535,31.4,3.802,47.1c2.021,25.042,4.043,50.085,6.064,75.127c0.466,5.772,0.932,11.544,1.398,17.316
				c0.256,3.174,5.202,3.233,5,0c-0.984-15.72-1.969-31.44-2.953-47.161c-1.57-25.074-3.14-50.149-4.71-75.223
				c-0.362-5.78-0.724-11.559-1.086-17.339c-0.2-3.19-5.162-3.229-5,0c0.79,15.731,1.579,31.462,2.369,47.193
				c1.26,25.092,2.519,50.183,3.779,75.275c0.29,5.783,0.581,11.567,0.871,17.35c0.16,3.195,5.086,3.235,5,0
				c-0.419-15.745-0.837-31.49-1.256-47.235c-0.668-25.114-1.336-50.228-2.003-75.342c-0.154-5.789-0.308-11.577-0.462-17.366
				c-0.085-3.209-5.027-3.228-5,0c0.132,15.75,0.264,31.5,0.396,47.249c0.211,25.122,0.421,50.243,0.632,75.365
				c0.049,5.79,0.097,11.581,0.146,17.371c0.027,3.22,4.931,3.219,5,0c0.337-15.746,0.673-31.493,1.01-47.239
				c0.537-25.116,1.074-50.232,1.61-75.349c0.124-5.789,0.247-11.578,0.371-17.367c0.069-3.229-4.852-3.203-5,0
				c-0.727,15.733-1.453,31.466-2.18,47.199c-1.159,25.095-2.318,50.189-3.478,75.284c-0.267,5.784-0.534,11.568-0.802,17.352
				c-0.15,3.243,4.737,3.169,5,0c1.305-15.695,2.61-31.39,3.915-47.085c2.082-25.034,4.163-50.068,6.245-75.102
				c0.48-5.77,0.96-11.54,1.439-17.311c0.269-3.241-4.637-3.135-5,0c-1.812,15.644-3.624,31.288-5.435,46.932
				c-2.89,24.953-5.78,49.906-8.67,74.858c-0.666,5.751-1.332,11.503-1.998,17.254c-0.321,2.773,4.461,3.446,4.911,0.665
				c2.511-15.546,5.023-31.093,7.534-46.639c4.006-24.797,8.011-49.594,12.017-74.391c0.923-5.716,1.847-11.431,2.77-17.147
				c0.503-3.116-4.17-4.524-4.821-1.329c-3.158,15.488-6.316,30.976-9.473,46.464c-5.012,24.582-10.024,49.165-15.036,73.747
				c-1.15,5.643-2.301,11.285-3.451,16.928c-0.637,3.125,4.002,4.472,4.821,1.329c3.988-15.294,7.976-30.589,11.965-45.883
				c6.33-24.275,12.66-48.55,18.99-72.825c1.453-5.572,2.906-11.144,4.359-16.716c0.815-3.126-3.856-4.392-4.821-1.329
				c-4.75,15.074-9.5,30.148-14.25,45.223c-7.539,23.926-15.078,47.851-22.617,71.777c-1.73,5.492-3.461,10.983-5.191,16.475
				c-0.984,3.122,3.686,4.271,4.821,1.329c5.689-14.744,11.378-29.489,17.067-44.233c9.029-23.402,18.059-46.804,27.088-70.206
				c2.073-5.372,4.145-10.743,6.218-16.115c1.011-2.62-3.396-4.505-4.569-1.926c-6.546,14.383-13.091,28.767-19.637,43.15
				c-10.389,22.829-20.778,45.658-31.168,68.488c-2.385,5.24-4.769,10.48-7.154,15.72c-1.307,2.871,2.752,5.403,4.317,2.524
				c7.546-13.884,15.091-27.768,22.637-41.652c11.976-22.037,23.953-44.073,35.929-66.11c2.749-5.058,5.498-10.116,8.247-15.174
				c1.541-2.835-2.599-5.246-4.317-2.524c-8.435,13.362-16.87,26.724-25.304,40.085c-13.388,21.208-26.775,42.415-40.163,63.623
				c-3.073,4.868-6.146,9.736-9.219,14.604c-1.756,2.781,2.446,5.045,4.317,2.524c9.418-12.688,18.835-25.375,28.253-38.063
				c14.948-20.138,29.895-40.276,44.843-60.413c3.431-4.622,6.862-9.245,10.293-13.867c1.679-2.262-2.109-5.207-3.926-3.03
				c-10.126,12.137-20.252,24.274-30.378,36.411c-16.072,19.264-32.144,38.528-48.216,57.792
				c-3.689,4.422-7.378,8.843-11.067,13.265c-2.03,2.433,1.32,5.933,3.536,3.536c10.728-11.608,21.457-23.217,32.185-34.825
				c17.028-18.425,34.056-36.85,51.084-55.274c3.908-4.229,7.817-8.458,11.725-12.687c2.179-2.357-1.239-5.813-3.536-3.536
				c-11.184,11.086-22.367,22.173-33.551,33.259c-17.838,17.683-35.676,35.367-53.514,53.05c-4.112,4.076-8.223,8.152-12.335,12.228
				c-2.301,2.281,1.156,5.68,3.536,3.536c11.698-10.542,23.396-21.085,35.095-31.627c18.659-16.815,37.318-33.631,55.977-50.446
				c4.301-3.876,8.602-7.752,12.903-11.628c2.42-2.181-1.096-5.562-3.536-3.536c-12.113,10.063-24.226,20.127-36.339,30.19
				c-19.321,16.052-38.642,32.103-57.963,48.155c-4.453,3.7-8.907,7.4-13.36,11.099c-2.158,1.792,0.762,5.648,3.03,3.926
				c12.542-9.524,25.084-19.048,37.626-28.571c20.005-15.191,40.011-30.382,60.016-45.573c4.611-3.501,9.222-7.003,13.833-10.504
				c2.503-1.9,0.149-6.198-2.524-4.317c-12.88,9.063-25.759,18.126-38.639,27.188c-20.544,14.455-41.087,28.911-61.631,43.366
				c-4.735,3.332-9.47,6.664-14.206,9.996c-2.593,1.825-0.215,6.086,2.524,4.317c13.23-8.544,26.459-17.089,39.689-25.633
				c21.102-13.629,42.204-27.257,63.305-40.886c4.864-3.141,9.728-6.283,14.592-9.424c2.688-1.736,0.254-5.987-2.524-4.317
				c-13.498,8.115-26.995,16.229-40.493,24.344c-21.529,12.943-43.059,25.887-64.588,38.83c-4.962,2.983-9.925,5.967-14.887,8.95
				c-2.759,1.659-0.297,5.879,2.524,4.317c13.778-7.629,27.556-15.259,41.335-22.888c21.977-12.169,43.954-24.338,65.931-36.507
				c5.066-2.805,10.131-5.61,15.197-8.415c2.827-1.565,0.325-5.792-2.524-4.317c-13.988,7.238-27.976,14.476-41.964,21.714
				c-22.312,11.545-44.623,23.089-66.935,34.634c-5.143,2.661-10.285,5.322-15.428,7.983c-2.88,1.49-0.351,5.691,2.524,4.317
				c14.211-6.789,28.423-13.579,42.634-20.368c22.668-10.829,45.336-21.659,68.003-32.488c5.225-2.496,10.45-4.992,15.674-7.488
				c2.925-1.397,0.372-5.614-2.524-4.317c-14.374,6.439-28.748,12.877-43.122,19.316c-22.927,10.27-45.854,20.54-68.781,30.809
				c-5.285,2.367-10.569,4.734-15.854,7.101c-2.554,1.144-0.697,5.656,1.926,4.569c14.551-6.029,29.101-12.058,43.652-18.087
				c23.209-9.616,46.418-19.233,69.627-28.849c5.35-2.217,10.699-4.433,16.049-6.65c2.91-1.206,1.699-6.002-1.329-4.821
				c-14.675,5.719-29.351,11.438-44.026,17.158c-23.408,9.122-46.816,18.245-70.223,27.367c-5.395,2.103-10.791,4.205-16.186,6.308
				c-2.946,1.148-1.731,5.926,1.329,4.821c14.815-5.348,29.629-10.697,44.444-16.045c23.63-8.531,47.26-17.062,70.89-25.593
				c5.447-1.966,10.893-3.933,16.34-5.899c2.993-1.081,1.742-5.867-1.329-4.821c-14.91,5.078-29.819,10.156-44.729,15.235
				c-23.781,8.1-47.563,16.2-71.344,24.3c-5.482,1.867-10.963,3.734-16.444,5.601c-3.02,1.029-1.763,5.798,1.329,4.821
				c15.019-4.744,30.038-9.489,45.058-14.233c23.956-7.568,47.913-15.135,71.869-22.703c5.522-1.744,11.044-3.489,16.565-5.233
				c3.054-0.965,1.771-5.748-1.329-4.821c-15.091,4.512-30.182,9.023-45.273,13.535c-24.071,7.196-48.141,14.392-72.212,21.588
				c-5.548,1.659-11.096,3.317-16.645,4.976c-3.075,0.919-1.785,5.686,1.329,4.821c15.177-4.214,30.353-8.428,45.53-12.642
				c24.208-6.722,48.415-13.443,72.623-20.165c5.58-1.549,11.159-3.099,16.739-4.648c3.098-0.86,1.79-5.644-1.329-4.821
				c-15.23,4.018-30.46,8.036-45.69,12.054c-24.292,6.409-48.585,12.818-72.877,19.226c-5.599,1.477-11.199,2.954-16.798,4.432
				c-3.133,0.826-1.801,5.47,1.329,4.821c15.473-3.207,30.945-6.415,46.418-9.622c24.558-5.091,49.116-10.181,73.674-15.272
				c5.637-1.168,11.274-2.337,16.911-3.505c3.193-0.662,1.787-5.316-1.329-4.821c-15.61,2.478-31.219,4.956-46.829,7.435
				c-24.775,3.933-49.551,7.867-74.326,11.8c-5.687,0.903-11.374,1.806-17.06,2.709c-2.76,0.438-2.142,5.153,0.665,4.911
				c15.689-1.355,31.378-2.711,47.067-4.066c25.025-2.162,50.05-4.324,75.074-6.485c5.768-0.498,11.536-0.997,17.304-1.495
				c3.166-0.273,3.238-5.201,0-5c-15.719,0.974-31.439,1.948-47.158,2.922c-25.073,1.554-50.146,3.107-75.219,4.661
				c-5.779,0.358-11.558,0.716-17.338,1.074c-3.183,0.197-3.247,5.036,0,5c15.749-0.175,31.499-0.349,47.248-0.524
				c25.121-0.278,50.242-0.557,75.363-0.835c5.79-0.064,11.581-0.128,17.371-0.193c3.215-0.036,3.224-5.017,0-5
				c-15.751,0.084-31.502,0.168-47.254,0.252c-25.124,0.134-50.248,0.268-75.371,0.402c-5.791,0.031-11.582,0.062-17.373,0.093
				c-3.223,0.017-3.215,4.908,0,5c15.745,0.449,31.491,0.897,47.236,1.346c25.114,0.715,50.229,1.431,75.343,2.146
				c5.789,0.165,11.578,0.33,17.366,0.495c0-1.667,0-3.333,0-5c-15.75-0.288-31.499-0.576-47.249-0.863
				c-25.121-0.459-50.242-0.918-75.363-1.377c-5.79-0.106-11.581-0.212-17.371-0.317c-3.225-0.059-3.21,4.882,0,5
				c15.741,0.577,31.483,1.155,47.224,1.732c25.108,0.921,50.216,1.842,75.324,2.763c5.787,0.212,11.575,0.425,17.362,0.637
				c0-1.667,0-3.333,0-5c-15.751-0.17-31.502-0.34-47.253-0.51c-25.124-0.271-50.247-0.543-75.371-0.814
				c-5.791-0.063-11.582-0.125-17.373-0.188c-3.219-0.035-3.22,4.959,0,5c15.75,0.202,31.5,0.403,47.25,0.605
				c25.122,0.322,50.243,0.643,75.365,0.965c5.79,0.074,11.581,0.148,17.371,0.222c0-1.667,0-3.333,0-5
				c-15.743,0.485-31.486,0.971-47.229,1.456c-25.111,0.774-50.221,1.548-75.332,2.322c-5.788,0.178-11.576,0.357-17.364,0.535
				c0,1.667,0,3.333,0,5c15.73-0.771,31.459-1.541,47.189-2.312c25.089-1.229,50.179-2.458,75.268-3.688
				c5.783-0.283,11.566-0.567,17.349-0.85c0-1.667,0-3.333,0-5c-15.7,1.828-31.4,3.655-47.1,5.483
				c-24.919,2.901-49.837,5.802-74.756,8.702c-5.72,0.666-11.439,1.332-17.159,1.997c0.222,1.637,0.443,3.274,0.665,4.911
				c15.596-2.541,31.192-5.081,46.788-7.622c24.754-4.032,49.507-8.065,74.261-12.097c5.682-0.926,11.364-1.851,17.045-2.777
				c-0.443-1.607-0.886-3.214-1.329-4.821c-15.263,4.07-30.525,8.139-45.788,12.209c-24.225,6.459-48.449,12.919-72.674,19.378
				c-5.56,1.483-11.121,2.965-16.681,4.448c0.443,1.607,0.886,3.214,1.329,4.821c14.87-5.304,29.74-10.608,44.61-15.912
				c23.602-8.418,47.203-16.837,70.805-25.255c5.417-1.932,10.835-3.865,16.252-5.797c-0.642-1.523-1.284-3.046-1.926-4.569
				c-13.998,7.284-27.996,14.568-41.993,21.852c-22.217,11.561-44.434,23.122-66.651,34.683c-5.1,2.654-10.199,5.307-15.299,7.961
				c0.841,1.439,1.682,2.878,2.524,4.317c13.054-8.853,26.108-17.706,39.162-26.559c20.719-14.051,41.438-28.103,62.157-42.154
				c4.756-3.225,9.511-6.451,14.267-9.676c-1.01-1.309-2.02-2.618-3.03-3.926c-11.48,10.814-22.96,21.628-34.441,32.443
				c-18.221,17.164-36.442,34.328-54.664,51.493c-4.182,3.94-8.365,7.88-12.547,11.819c1.178,1.179,2.357,2.357,3.536,3.536
				c10.098-12.121,20.196-24.242,30.294-36.362c16.027-19.238,32.055-38.476,48.082-57.714c3.679-4.416,7.358-8.832,11.037-13.247
				c2.046-2.456-1.473-6.011-3.536-3.536c-10.098,12.121-20.196,24.242-30.294,36.362c-16.027,19.238-32.055,38.476-48.082,57.714
				c-3.679,4.416-7.358,8.832-11.037,13.247c-2.034,2.441,1.154,5.779,3.536,3.536c11.48-10.814,22.96-21.628,34.441-32.443
				c18.221-17.164,36.442-34.328,54.664-51.493c4.182-3.94,8.365-7.88,12.547-11.819c2.031-1.913-0.649-5.541-3.03-3.926
				c-13.054,8.853-26.108,17.706-39.162,26.559c-20.719,14.051-41.438,28.103-62.157,42.154c-4.756,3.225-9.511,6.451-14.267,9.676
				c-2.653,1.799-0.353,5.814,2.524,4.317c13.998-7.284,27.996-14.568,41.993-21.852c22.217-11.561,44.434-23.122,66.651-34.683
				c5.1-2.654,10.199-5.307,15.299-7.961c2.477-1.289,0.767-5.53-1.926-4.569c-14.87,5.304-29.74,10.608-44.61,15.912
				c-23.602,8.418-47.203,16.837-70.805,25.255c-5.417,1.932-10.835,3.865-16.252,5.797c-2.993,1.068-1.823,5.662,1.329,4.821
				c15.263-4.07,30.525-8.139,45.788-12.209c24.225-6.459,48.449-12.919,72.674-19.378c5.56-1.483,11.121-2.965,16.681-4.448
				c3.172-0.846,1.781-5.328-1.329-4.821c-15.596,2.541-31.192,5.081-46.788,7.622c-24.754,4.032-49.507,8.065-74.261,12.097
				c-5.682,0.926-11.364,1.851-17.045,2.777c-2.75,0.448-2.14,5.237,0.665,4.911c15.7-1.828,31.4-3.655,47.1-5.483
				c24.919-2.901,49.837-5.802,74.756-8.702c5.72-0.666,11.439-1.332,17.159-1.997c3.112-0.362,3.283-5.161,0-5
				c-15.73,0.771-31.459,1.541-47.189,2.312c-25.089,1.229-50.179,2.458-75.268,3.688c-5.783,0.283-11.566,0.567-17.349,0.85
				c-3.197,0.157-3.232,5.1,0,5c15.743-0.485,31.486-0.971,47.229-1.456c25.111-0.774,50.221-1.548,75.332-2.322
				c5.788-0.178,11.576-0.357,17.364-0.535c3.21-0.099,3.228-4.959,0-5c-15.75-0.202-31.5-0.403-47.25-0.605
				c-25.122-0.322-50.243-0.643-75.365-0.965c-5.79-0.074-11.581-0.148-17.371-0.222c0,1.667,0,3.333,0,5
				c15.751,0.17,31.502,0.34,47.253,0.51c25.124,0.271,50.247,0.543,75.371,0.814c5.791,0.063,11.582,0.125,17.373,0.188
				c3.226,0.035,3.209-4.882,0-5c-15.741-0.577-31.483-1.155-47.224-1.732c-25.108-0.921-50.216-1.842-75.325-2.763
				c-5.787-0.212-11.575-0.425-17.362-0.637c0,1.667,0,3.333,0,5c15.75,0.288,31.499,0.576,47.249,0.863
				c25.121,0.459,50.242,0.918,75.363,1.377c5.79,0.106,11.581,0.212,17.371,0.317c3.222,0.059,3.214-4.908,0-5
				c-15.745-0.449-31.491-0.897-47.236-1.346c-25.114-0.715-50.229-1.431-75.343-2.146c-5.789-0.165-11.578-0.33-17.366-0.495
				c0,1.667,0,3.333,0,5c15.751-0.084,31.502-0.168,47.254-0.252c25.124-0.134,50.248-0.268,75.371-0.402
				c5.791-0.031,11.582-0.062,17.373-0.093c0-1.667,0-3.333,0-5c-15.749,0.175-31.499,0.349-47.248,0.524
				c-25.121,0.278-50.242,0.557-75.363,0.835c-5.79,0.064-11.581,0.128-17.371,0.193c0,1.667,0,3.333,0,5
				c15.719-0.974,31.439-1.948,47.158-2.922c25.073-1.554,50.146-3.107,75.219-4.661c5.779-0.358,11.558-0.716,17.338-1.074
				c0-1.667,0-3.333,0-5c-15.689,1.355-31.378,2.711-47.067,4.066c-25.025,2.162-50.049,4.324-75.074,6.485
				c-5.768,0.498-11.536,0.997-17.304,1.495c0.222,1.637,0.443,3.274,0.665,4.911c15.61-2.478,31.219-4.956,46.829-7.435
				c24.775-3.933,49.551-7.867,74.326-11.8c5.687-0.903,11.374-1.806,17.06-2.709c-0.443-1.607-0.886-3.214-1.329-4.821
				c-15.473,3.207-30.945,6.415-46.418,9.622c-24.558,5.091-49.116,10.181-73.674,15.272c-5.637,1.168-11.274,2.337-16.911,3.505
				c0.443,1.607,0.886,3.214,1.329,4.821c15.23-4.018,30.46-8.036,45.69-12.054c24.292-6.409,48.585-12.818,72.877-19.226
				c5.599-1.477,11.199-2.954,16.798-4.432c-0.443-1.607-0.886-3.214-1.329-4.821c-15.177,4.214-30.354,8.428-45.53,12.642
				c-24.208,6.722-48.415,13.443-72.623,20.165c-5.58,1.549-11.159,3.099-16.739,4.648c0.443,1.607,0.886,3.214,1.329,4.821
				c15.091-4.512,30.182-9.023,45.273-13.535c24.071-7.196,48.141-14.392,72.212-21.588c5.548-1.659,11.096-3.317,16.644-4.976
				c-0.443-1.607-0.886-3.214-1.329-4.821c-15.019,4.744-30.038,9.489-45.058,14.233c-23.956,7.568-47.913,15.135-71.869,22.703
				c-5.522,1.744-11.044,3.489-16.565,5.233c0.443,1.607,0.886,3.214,1.329,4.821c14.91-5.078,29.819-10.156,44.729-15.235
				c23.781-8.1,47.563-16.2,71.344-24.3c5.481-1.867,10.963-3.734,16.444-5.601c-0.443-1.607-0.886-3.214-1.329-4.821
				c-14.815,5.348-29.629,10.697-44.444,16.045c-23.63,8.531-47.26,17.062-70.89,25.593c-5.447,1.966-10.893,3.933-16.34,5.899
				c0.443,1.607,0.886,3.214,1.329,4.821c14.675-5.719,29.351-11.438,44.026-17.158c23.408-9.122,46.816-18.245,70.223-27.367
				c5.395-2.103,10.791-4.205,16.186-6.308c-0.443-1.607-0.886-3.214-1.329-4.821c-14.551,6.029-29.101,12.058-43.652,18.087
				c-23.209,9.616-46.418,19.233-69.627,28.849c-5.35,2.217-10.699,4.433-16.049,6.65c0.642,1.523,1.284,3.046,1.926,4.569
				c14.374-6.439,28.748-12.877,43.122-19.316c22.927-10.27,45.854-20.54,68.781-30.809c5.285-2.367,10.569-4.734,15.854-7.101
				c-0.841-1.439-1.682-2.878-2.524-4.317c-14.211,6.789-28.423,13.579-42.634,20.368c-22.668,10.829-45.336,21.659-68.003,32.488
				c-5.225,2.496-10.45,4.992-15.674,7.488c0.841,1.439,1.682,2.878,2.524,4.317c13.988-7.238,27.976-14.476,41.964-21.714
				c22.312-11.545,44.623-23.089,66.935-34.634c5.143-2.661,10.285-5.322,15.428-7.983c-0.841-1.439-1.682-2.878-2.524-4.317
				c-13.778,7.629-27.556,15.259-41.335,22.888c-21.977,12.169-43.954,24.338-65.931,36.507c-5.066,2.805-10.131,5.61-15.197,8.415
				c0.841,1.439,1.682,2.878,2.524,4.317c13.498-8.115,26.995-16.229,40.493-24.344c21.529-12.943,43.059-25.887,64.588-38.83
				c4.962-2.983,9.925-5.967,14.887-8.95c-0.841-1.439-1.682-2.878-2.524-4.317c-13.23,8.544-26.459,17.089-39.689,25.633
				c-21.102,13.629-42.204,27.257-63.305,40.886c-4.864,3.141-9.728,6.283-14.592,9.424c0.841,1.439,1.682,2.878,2.524,4.317
				c12.88-9.063,25.759-18.126,38.639-27.188c20.544-14.455,41.087-28.911,61.631-43.366c4.735-3.332,9.47-6.664,14.206-9.996
				c-0.841-1.439-1.682-2.878-2.524-4.317c-12.542,9.524-25.084,19.048-37.626,28.571c-20.005,15.191-40.011,30.382-60.016,45.573
				c-4.611,3.501-9.222,7.003-13.833,10.504c1.01,1.309,2.02,2.618,3.03,3.926c12.113-10.063,24.226-20.127,36.339-30.19
				c19.321-16.052,38.642-32.103,57.963-48.155c4.453-3.7,8.907-7.4,13.36-11.099c-1.179-1.179-2.357-2.357-3.536-3.536
				c-11.698,10.542-23.396,21.085-35.095,31.627c-18.659,16.815-37.318,33.631-55.977,50.446
				c-4.301,3.876-8.602,7.752-12.903,11.628c1.179,1.179,2.357,2.357,3.536,3.536c11.184-11.086,22.367-22.173,33.551-33.259
				c17.838-17.683,35.676-35.367,53.514-53.05c4.112-4.076,8.223-8.152,12.335-12.228c-1.178-1.179-2.357-2.357-3.536-3.536
				c-10.728,11.608-21.457,23.217-32.185,34.825c-17.028,18.425-34.056,36.85-51.084,55.274c-3.908,4.229-7.817,8.458-11.725,12.687
				c1.178,1.179,2.357,2.357,3.536,3.536c10.126-12.137,20.252-24.274,30.378-36.411c16.072-19.264,32.144-38.528,48.216-57.792
				c3.689-4.422,7.378-8.843,11.067-13.265c-1.309-1.01-2.618-2.02-3.926-3.03c-9.418,12.688-18.835,25.375-28.253,38.063
				c-14.948,20.138-29.895,40.276-44.843,60.413c-3.431,4.622-6.862,9.245-10.293,13.867c1.439,0.841,2.878,1.682,4.317,2.524
				c8.435-13.362,16.87-26.724,25.304-40.085c13.388-21.208,26.775-42.415,40.163-63.623c3.073-4.868,6.146-9.736,9.219-14.604
				c-1.439-0.841-2.878-1.682-4.317-2.524c-7.546,13.884-15.091,27.768-22.637,41.652c-11.976,22.037-23.953,44.073-35.929,66.11
				c-2.749,5.058-5.498,10.116-8.247,15.174c1.439,0.841,2.878,1.682,4.317,2.524c6.546-14.383,13.091-28.767,19.637-43.15
				c10.389-22.829,20.778-45.658,31.168-68.488c2.385-5.24,4.769-10.48,7.154-15.72c-1.523-0.642-3.046-1.284-4.569-1.926
				c-5.689,14.744-11.378,29.489-17.067,44.233c-9.029,23.402-18.059,46.804-27.088,70.206c-2.073,5.372-4.145,10.743-6.218,16.115
				c1.607,0.443,3.214,0.886,4.821,1.329c4.75-15.074,9.5-30.148,14.25-45.223c7.539-23.926,15.078-47.851,22.617-71.777
				c1.73-5.492,3.461-10.983,5.191-16.475c-1.607-0.443-3.214-0.886-4.821-1.329c-3.988,15.294-7.976,30.589-11.965,45.883
				c-6.33,24.275-12.66,48.55-18.99,72.825c-1.453,5.572-2.906,11.144-4.359,16.716c1.607,0.443,3.214,0.886,4.821,1.329
				c3.158-15.488,6.316-30.976,9.474-46.464c5.012-24.582,10.024-49.165,15.036-73.747c1.15-5.643,2.301-11.285,3.451-16.928
				c-1.607-0.443-3.214-0.886-4.821-1.329c-2.511,15.546-5.023,31.093-7.534,46.639c-4.006,24.797-8.011,49.594-12.017,74.391
				c-0.923,5.716-1.847,11.431-2.77,17.147c1.637,0.222,3.274,0.443,4.911,0.665c1.812-15.644,3.624-31.288,5.435-46.932
				c2.89-24.953,5.78-49.906,8.67-74.858c0.666-5.751,1.332-11.503,1.998-17.254c-1.667,0-3.333,0-5,0
				c-1.305,15.695-2.61,31.39-3.915,47.085c-2.082,25.034-4.163,50.068-6.245,75.102c-0.48,5.77-0.96,11.54-1.439,17.311
				c1.667,0,3.333,0,5,0c0.727-15.733,1.453-31.466,2.18-47.199c1.159-25.095,2.318-50.189,3.478-75.284
				c0.267-5.784,0.534-11.568,0.802-17.352c-1.667,0-3.333,0-5,0c-0.337,15.746-0.673,31.493-1.01,47.239
				c-0.537,25.116-1.074,50.232-1.61,75.349c-0.124,5.789-0.247,11.578-0.371,17.367c1.667,0,3.333,0,5,0
				c-0.132-15.75-0.264-31.5-0.396-47.249c-0.211-25.122-0.421-50.243-0.632-75.365c-0.049-5.79-0.097-11.581-0.146-17.371
				c-1.667,0-3.333,0-5,0c0.419,15.745,0.837,31.49,1.256,47.235c0.668,25.114,1.336,50.228,2.003,75.342
				c0.154,5.789,0.308,11.577,0.462,17.366c1.667,0,3.333,0,5,0c-0.79-15.731-1.579-31.462-2.369-47.193
				c-1.26-25.092-2.519-50.183-3.779-75.275c-0.29-5.784-0.581-11.567-0.871-17.351c-1.667,0-3.333,0-5,0
				c0.984,15.72,1.969,31.44,2.953,47.161c1.57,25.074,3.14,50.149,4.71,75.223c0.362,5.78,0.724,11.559,1.086,17.339
				c1.667,0,3.333,0,5,0c-1.267-15.7-2.535-31.4-3.802-47.1c-2.021-25.042-4.043-50.085-6.064-75.127
				c-0.466-5.772-0.932-11.544-1.398-17.316c-1.667,0-3.333,0-5,0c1.378,15.691,2.755,31.382,4.133,47.073
				c2.197,25.028,4.395,50.055,6.592,75.083c0.506,5.769,1.013,11.538,1.519,17.306c1.667,0,3.333,0,5,0
				c-1.578-15.672-3.155-31.344-4.733-47.017c-2.516-24.998-5.033-49.996-7.549-74.993c-0.58-5.762-1.16-11.524-1.74-17.286
				c-1.667,0-3.333,0-5,0c1.606,15.669,3.212,31.339,4.818,47.008c2.562,24.993,5.124,49.987,7.686,74.98
				c0.59,5.761,1.181,11.522,1.771,17.282c1.637-0.222,3.274-0.443,4.911-0.665c-2.184-15.612-4.368-31.224-6.553-46.835
				c-3.484-24.901-6.968-49.803-10.452-74.704c-0.803-5.74-1.606-11.479-2.409-17.219c-0.391-2.794-5.028-2.121-4.911,0.665
				c0.664,15.75,1.327,31.5,1.991,47.25c1.059,25.122,2.117,50.243,3.176,75.365c0.244,5.79,0.488,11.581,0.732,17.371
				c1.667,0,3.333,0,5,0c-1.685-15.674-3.37-31.347-5.054-47.021c-2.687-25-5.375-50-8.062-75
				c-0.619-5.762-1.239-11.525-1.858-17.287c-0.336-3.123-5.034-3.291-5,0c0.162,15.763,0.323,31.526,0.485,47.289
				c0.258,25.143,0.516,50.285,0.773,75.428c0.059,5.795,0.119,11.591,0.178,17.386c1.667,0,3.333,0,5,0
				c-1.186-15.719-2.371-31.438-3.557-47.158c-1.891-25.073-3.782-50.146-5.674-75.218c-0.436-5.779-0.872-11.558-1.308-17.337
				c-0.24-3.176-4.93-3.256-5,0c-0.339,15.76-0.677,31.52-1.016,47.281c-0.54,25.138-1.081,50.276-1.621,75.415
				c-0.125,5.794-0.249,11.588-0.374,17.383c1.667,0,3.333,0,5,0c-0.687-15.749-1.374-31.498-2.061-47.247
				c-1.096-25.12-2.191-50.24-3.287-75.36c-0.253-5.79-0.505-11.58-0.758-17.37c-0.141-3.222-4.829-3.214-5,0
				c-0.837,15.742-1.675,31.483-2.513,47.225c-1.336,25.108-2.672,50.217-4.008,75.325c-0.308,5.787-0.616,11.575-0.924,17.362
				c1.667,0,3.333,0,5,0c-0.188-15.763-0.377-31.525-0.565-47.288c-0.3-25.142-0.601-50.284-0.901-75.427
				c-0.069-5.795-0.139-11.59-0.208-17.385c-0.039-3.261-4.731-3.166-5,0c-1.335,15.707-2.669,31.415-4.004,47.122
				c-2.129,25.054-4.258,50.107-6.387,75.161c-0.491,5.775-0.981,11.55-1.472,17.324c1.667,0,3.333,0,5,0
				c0.31-15.761,0.62-31.522,0.929-47.282c0.494-25.139,0.988-50.278,1.482-75.417c0.114-5.794,0.228-11.589,0.342-17.383
				c0.065-3.294-4.636-3.112-5,0c-1.83,15.657-3.661,31.314-5.491,46.972c-2.919,24.974-5.839,49.948-8.758,74.922
				c-0.673,5.756-1.346,11.513-2.019,17.269c1.667,0,3.333,0,5,0c0.808-15.743,1.615-31.486,2.423-47.229
				c1.288-25.111,2.576-50.222,3.865-75.333c0.297-5.788,0.594-11.576,0.891-17.364c0.142-2.762-4.491-3.479-4.911-0.665
				c-2.324,15.592-4.649,31.183-6.973,46.775c-3.707,24.869-7.415,49.738-11.122,74.608c-0.855,5.732-1.709,11.464-2.564,17.197
				c1.637,0.222,3.274,0.443,4.911,0.665c1.305-15.71,2.61-31.419,3.916-47.129c2.082-25.058,4.164-50.115,6.246-75.173
				c0.48-5.776,0.96-11.551,1.44-17.327c0.231-2.782-4.406-3.442-4.911-0.665c-2.817,15.51-5.634,31.02-8.45,46.53
				c-4.493,24.739-8.986,49.479-13.478,74.218c-1.036,5.702-2.071,11.405-3.107,17.107c1.637,0.222,3.274,0.443,4.911,0.665
				c1.802-15.66,3.605-31.321,5.407-46.981c2.875-24.979,5.75-49.958,8.625-74.937c0.663-5.758,1.325-11.515,1.988-17.273
				c0.322-2.796-4.324-3.4-4.911-0.665c-3.308,15.413-6.615,30.826-9.923,46.239c-5.276,24.584-10.552,49.169-15.827,73.753
				c-1.216,5.667-2.432,11.333-3.648,17c1.607,0.443,3.214,0.886,4.821,1.329c2.299-15.595,4.599-31.19,6.898-46.786
				c3.668-24.875,7.335-49.75,11.003-74.625c0.845-5.734,1.691-11.467,2.536-17.201c0.456-3.09-4.026-4.536-4.821-1.329
				c-3.797,15.3-7.594,30.6-11.39,45.899c-6.056,24.404-12.112,48.808-18.168,73.211c-1.396,5.625-2.792,11.25-4.188,16.875
				c1.607,0.443,3.214,0.886,4.821,1.329c2.796-15.514,5.592-31.028,8.388-46.542c4.46-24.745,8.919-49.491,13.379-74.236
				c1.028-5.704,2.056-11.407,3.084-17.111c0.562-3.116-4.032-4.498-4.821-1.329c-3.808,15.286-7.616,30.571-11.424,45.857
				c-6.074,24.381-12.148,48.763-18.222,73.144c-1.4,5.62-2.8,11.24-4.2,16.859c1.607,0.443,3.214,0.886,4.821,1.329
				c3.499-15.359,6.998-30.719,10.497-46.078c5.581-24.499,11.162-48.997,16.743-73.496c1.286-5.647,2.573-11.294,3.859-16.94
				c0.712-3.126-3.988-4.452-4.821-1.329c-4.063,15.22-8.125,30.44-12.188,45.66c-6.48,24.276-12.96,48.553-19.44,72.829
				c-1.494,5.596-2.987,11.191-4.481,16.787c1.607,0.443,3.214,0.886,4.821,1.329c3.797-15.288,7.594-30.576,11.392-45.865
				c6.057-24.385,12.113-48.771,18.17-73.156c1.396-5.621,2.792-11.241,4.188-16.862c0.776-3.124-3.921-4.423-4.821-1.329
				c-4.4,15.126-8.801,30.251-13.201,45.377c-7.019,24.126-14.038,48.252-21.057,72.378c-1.618,5.561-3.236,11.122-4.854,16.683
				c1.607,0.443,3.214,0.886,4.821,1.329c4.18-15.188,8.36-30.376,12.54-45.564c6.667-24.225,13.334-48.451,20.002-72.676
				c1.537-5.584,3.074-11.168,4.61-16.751c0.858-3.119-3.84-4.38-4.821-1.329c-4.822,14.996-9.645,29.992-14.467,44.989
				c-7.692,23.92-15.384,47.839-23.076,71.759c-1.773,5.513-3.546,11.027-5.319,16.54c1.607,0.443,3.214,0.886,4.821,1.329
				c4.648-15.051,9.297-30.102,13.945-45.153c7.415-24.007,14.829-48.014,22.244-72.02c1.709-5.533,3.418-11.067,5.127-16.6
				c0.96-3.108-3.746-4.321-4.821-1.329c-5.33,14.823-10.66,29.646-15.99,44.47c-8.501,23.644-17.003,47.287-25.504,70.931
				c-1.96,5.45-3.919,10.899-5.879,16.349c1.607,0.443,3.214,0.886,4.821,1.329c5.204-14.868,10.409-29.735,15.613-44.603
				c8.301-23.714,16.602-47.429,24.903-71.143c1.913-5.466,3.827-10.932,5.74-16.398c1.081-3.089-3.64-4.24-4.821-1.329
				c-5.924,14.596-11.847,29.192-17.771,43.788c-9.448,23.281-18.897,46.562-28.345,69.843c-2.178,5.366-4.356,10.732-6.533,16.098
				c1.607,0.443,3.214,0.886,4.821,1.329c5.848-14.626,11.696-29.252,17.544-43.878c9.328-23.329,18.655-46.658,27.983-69.988
				c2.15-5.377,4.3-10.755,6.45-16.132c1.043-2.61-3.383-4.495-4.569-1.926c-6.603,14.301-13.205,28.602-19.808,42.903
				c-10.531,22.811-21.063,45.622-31.594,68.433c-2.427,5.258-4.855,10.516-7.282,15.773c1.439,0.841,2.878,1.682,4.317,2.524
				c6.577-14.312,13.155-28.625,19.732-42.937c10.491-22.829,20.983-45.658,31.474-68.487c2.418-5.262,4.836-10.524,7.255-15.786
				c1.32-2.873-2.79-5.412-4.317-2.524c-7.363,13.924-14.726,27.849-22.089,41.773c-11.744,22.21-23.489,44.42-35.233,66.63
				c-2.707,5.119-5.414,10.239-8.121,15.358c-1.503,2.842,2.806,5.37,4.317,2.524c7.387-13.912,14.774-27.823,22.161-41.735
				c11.783-22.189,23.565-44.379,35.348-66.568c2.716-5.115,5.432-10.229,8.147-15.344c1.508-2.84-2.637-5.281-4.317-2.524
				c-8.196,13.451-16.391,26.902-24.587,40.353c-13.072,21.455-26.145,42.909-39.217,64.364c-3.013,4.945-6.026,9.89-9.039,14.836
				c-1.679,2.756,2.631,5.26,4.317,2.524c8.264-13.408,16.529-26.817,24.793-40.225c13.182-21.387,26.364-42.774,39.546-64.161
				c3.038-4.93,6.077-9.859,9.115-14.789c1.714-2.781-2.49-5.112-4.317-2.524c-9.084,12.867-18.168,25.734-27.252,38.601
				c-14.489,20.523-28.979,41.047-43.468,61.57c-3.34,4.731-6.679,9.461-10.019,14.192c-1.864,2.64,2.459,5.111,4.317,2.524
				c9.19-12.792,18.379-25.583,27.569-38.375c14.658-20.403,29.315-40.806,43.973-61.209c3.379-4.703,6.757-9.406,10.136-14.108
				c1.641-2.285-2.122-5.224-3.926-3.03c-10.004,12.165-20.009,24.33-30.013,36.494c-15.957,19.403-31.914,38.807-47.872,58.21
				c-3.678,4.472-7.356,8.945-11.034,13.417c-2.023,2.46,1.458,6.012,3.536,3.536c10.12-12.069,20.241-24.137,30.361-36.206
				c16.142-19.25,32.285-38.5,48.427-57.75c3.721-4.437,7.441-8.874,11.162-13.311c2.036-2.428-1.296-5.913-3.536-3.536
				c-10.801,11.464-21.601,22.928-32.402,34.393c-17.227,18.286-34.455,36.572-51.682,54.858c-3.971,4.215-7.942,8.43-11.913,12.644
				c-2.205,2.34,1.307,5.871,3.536,3.536c10.873-11.396,21.746-22.792,32.62-34.187c17.343-18.177,34.686-36.354,52.029-54.53
				c3.997-4.19,7.995-8.379,11.993-12.569c2.226-2.333-1.189-5.742-3.536-3.536c-11.475,10.79-22.95,21.58-34.425,32.369
				c-18.303,17.21-36.606,34.42-54.91,51.63c-4.219,3.967-8.438,7.934-12.656,11.901c-2.35,2.21,1.187,5.733,3.536,3.536
				c11.503-10.76,23.006-21.52,34.51-32.28c18.348-17.163,36.696-34.326,55.044-51.489c4.229-3.956,8.458-7.912,12.687-11.868
				c2.38-2.226-1.11-5.585-3.536-3.536c-12.03,10.167-24.061,20.335-36.091,30.502c-19.189,16.217-38.378,32.435-57.567,48.652
				c-4.423,3.738-8.846,7.476-13.269,11.214c1.179,1.179,2.357,2.357,3.536,3.536c12.017-10.184,24.034-20.368,36.05-30.552
				c19.167-16.244,38.334-32.488,57.502-48.732c4.418-3.744,8.836-7.488,13.254-11.232c2.138-1.812-0.773-5.666-3.03-3.926
				c-12.476,9.616-24.952,19.232-37.428,28.848c-19.9,15.338-39.799,30.676-59.699,46.014c-4.587,3.535-9.174,7.071-13.76,10.606
				c1.01,1.309,2.02,2.618,3.03,3.926c12.424-9.683,24.849-19.366,37.273-29.049c19.817-15.445,39.635-30.889,59.452-46.334
				c4.568-3.56,9.136-7.12,13.703-10.68c2.218-1.729-0.718-5.575-3.03-3.926c-12.824,9.148-25.647,18.295-38.471,27.443
				c-20.454,14.591-40.909,29.182-61.363,43.773c-4.715,3.363-9.429,6.726-14.144,10.089c0.841,1.439,1.682,2.878,2.524,4.317
				c12.738-9.267,25.476-18.534,38.215-27.8c20.318-14.781,40.636-29.562,60.954-44.343c4.683-3.407,9.366-6.814,14.05-10.221
				c2.554-1.858,0.188-6.135-2.524-4.317c-13.086,8.769-26.171,17.539-39.257,26.308c-20.872,13.988-41.744,27.975-62.616,41.963
				c-4.811,3.224-9.622,6.448-14.433,9.672c0.841,1.439,1.682,2.878,2.524,4.317c12.969-8.941,25.938-17.882,38.908-26.823
				c20.686-14.261,41.373-28.522,62.059-42.783c4.768-3.287,9.536-6.574,14.304-9.861c2.618-1.805,0.217-6.07-2.524-4.317
				c-13.272,8.485-26.544,16.97-39.816,25.456c-21.169,13.534-42.338,27.068-63.507,40.603c-4.879,3.12-9.759,6.239-14.638,9.359
				c0.841,1.439,1.682,2.878,2.524,4.317c13.127-8.708,26.254-17.416,39.38-26.125c20.938-13.89,41.875-27.78,62.813-41.67
				c4.826-3.202,9.652-6.403,14.478-9.605c2.661-1.765,0.235-6.027-2.524-4.317c-13.391,8.297-26.781,16.593-40.172,24.89
				c-21.359,13.234-42.717,26.467-64.076,39.701c-4.923,3.05-9.846,6.101-14.769,9.151c0.841,1.439,1.682,2.878,2.524,4.317
				c13.217-8.57,26.435-17.14,39.652-25.711c21.082-13.67,42.165-27.34,63.247-41.009c4.859-3.151,9.719-6.302,14.578-9.452
				c2.685-1.741,0.243-6.005-2.524-4.317c-13.447,8.205-26.894,16.41-40.341,24.616c-21.448,13.088-42.897,26.175-64.345,39.263
				c-4.944,3.017-9.888,6.033-14.831,9.05c0.841,1.439,1.682,2.878,2.524,4.317c13.245-8.528,26.489-17.056,39.734-25.584
				c21.126-13.602,42.252-27.205,63.378-40.807c4.869-3.135,9.739-6.271,14.608-9.406c2.692-1.733,0.24-6.006-2.524-4.317
				c-13.443,8.211-26.886,16.423-40.329,24.634c-21.442,13.098-42.885,26.195-64.327,39.293c-4.942,3.019-9.885,6.038-14.827,9.057
				c0.841,1.439,1.682,2.878,2.524,4.317c13.21-8.582,26.419-17.164,39.629-25.747c21.07-13.689,42.139-27.378,63.209-41.067
				c4.856-3.155,9.713-6.31,14.569-9.466c2.685-1.745,0.21-6.05-2.524-4.317c-13.305,8.432-26.609,16.863-39.914,25.295
				c-21.222,13.449-42.443,26.898-63.665,40.347c-4.891,3.1-9.783,6.2-14.674,9.3c0.841,1.439,1.682,2.878,2.524,4.317
				c13.235-8.541,26.47-17.082,39.704-25.623c21.11-13.623,42.22-27.246,63.33-40.869c4.866-3.14,9.732-6.28,14.597-9.42
				c-0.841-1.439-1.682-2.878-2.524-4.317c-13.226,8.555-26.451,17.11-39.677,25.665c-21.095,13.646-42.191,27.291-63.286,40.937
				c-4.862,3.145-9.725,6.291-14.587,9.436c0.841,1.439,1.682,2.878,2.524,4.317c13.122-8.713,26.245-17.425,39.367-26.138
				c20.931-13.897,41.862-27.794,62.792-41.691c4.824-3.203,9.649-6.406,14.473-9.609c-0.841-1.439-1.682-2.878-2.524-4.317
				c-13.081,8.775-26.161,17.55-39.242,26.325c-20.864,13.996-41.728,27.993-62.593,41.989c-4.809,3.226-9.618,6.452-14.427,9.678
				c0.841,1.439,1.682,2.878,2.524,4.317c12.941-8.979,25.883-17.958,38.824-26.937c20.642-14.322,41.284-28.643,61.926-42.965
				c4.758-3.301,9.516-6.602,14.274-9.903c-0.841-1.439-1.682-2.878-2.524-4.317c-12.864,9.089-25.729,18.178-38.593,27.266
				C225.66,77.803,205.14,92.3,184.621,106.797c-4.73,3.341-9.459,6.683-14.189,10.024c0.841,1.439,1.682,2.878,2.524,4.317
				c12.685-9.337,25.37-18.675,38.055-28.012c20.233-14.894,40.466-29.787,60.699-44.681c4.664-3.433,9.327-6.866,13.991-10.299
				c-0.841-1.439-1.682-2.878-2.524-4.317c-12.568,9.494-25.136,18.988-37.703,28.483c-20.046,15.144-40.092,30.287-60.138,45.431
				c-4.621,3.491-9.241,6.981-13.862,10.472c1.01,1.309,2.02,2.618,3.03,3.926c12.341-9.786,24.683-19.573,37.024-29.359
				c19.685-15.61,39.37-31.22,59.055-46.83c4.537-3.598,9.075-7.196,13.612-10.794c-1.178-1.179-2.357-2.357-3.536-3.536
				c-12.178,9.989-24.355,19.978-36.533,29.967c-19.424,15.933-38.848,31.866-58.272,47.799c-4.477,3.672-8.954,7.345-13.431,11.017
				c1.179,1.179,2.357,2.357,3.536,3.536c11.896-10.322,23.793-20.644,35.689-30.967c18.975-16.464,37.951-32.929,56.926-49.393
				c4.374-3.795,8.747-7.59,13.121-11.385c-1.179-1.179-2.357-2.357-3.536-3.536c-11.678,10.568-23.356,21.137-35.034,31.705
				c-18.627,16.857-37.254,33.714-55.881,50.57c-4.293,3.885-8.587,7.771-12.88,11.656c1.179,1.179,2.357,2.357,3.536,3.536
				c11.332-10.938,22.664-21.877,33.996-32.815c18.075-17.447,36.15-34.894,54.225-52.341c4.166-4.021,8.332-8.043,12.499-12.064
				c-1.179-1.179-2.357-2.357-3.536-3.536c-11.05,11.223-22.1,22.445-33.15,33.668c-17.625,17.901-35.25,35.801-52.876,53.702
				c-4.063,4.126-8.125,8.252-12.188,12.378c1.179,1.179,2.357,2.357,3.536,3.536c10.63-11.621,21.26-23.241,31.891-34.862
				c16.956-18.535,33.911-37.071,50.867-55.606c3.908-4.272,7.816-8.545,11.725-12.817c-1.179-1.179-2.357-2.357-3.536-3.536
				c-10.277,11.934-20.554,23.867-30.831,35.801c-16.392,19.035-32.785,38.069-49.177,57.104
				c-3.778,4.387-7.557,8.775-11.335,13.162c1.179,1.179,2.357,2.357,3.536,3.536c9.777-12.346,19.554-24.693,29.331-37.039
				c15.595-19.693,31.189-39.386,46.784-59.079c3.595-4.539,7.189-9.078,10.784-13.617c-1.309-1.01-2.618-2.02-3.926-3.03
				c-9.348,12.674-18.696,25.347-28.045,38.021c-14.911,20.215-29.822,40.43-44.733,60.645c-3.437,4.659-6.874,9.319-10.311,13.978
				c1.439,0.841,2.878,1.682,4.317,2.524c8.766-13.083,17.531-26.166,26.297-39.249c13.982-20.868,27.963-41.736,41.945-62.604
				c3.223-4.81,6.445-9.62,9.668-14.43c-1.439-0.841-2.878-1.682-4.317-2.524c-8.264,13.405-16.527,26.811-24.791,40.216
				c-13.181,21.382-26.362,42.764-39.543,64.147c-3.038,4.928-6.076,9.857-9.114,14.785c1.439,0.841,2.878,1.682,4.317,2.524
				c7.599-13.86,15.197-27.72,22.796-41.58c12.061-21.999,24.121-43.997,36.182-65.996c2.768-5.049,5.537-10.099,8.305-15.148
				c-1.439-0.841-2.878-1.682-4.317-2.524c-6.995,14.175-13.99,28.35-20.985,42.524c-11.102,22.498-22.205,44.996-33.307,67.494
				c-2.548,5.164-5.097,10.328-7.645,15.492c1.439,0.841,2.878,1.682,4.317,2.524c6.232-14.462,12.465-28.923,18.697-43.385
				c9.941-23.067,19.882-46.134,29.823-69.201c2.291-5.317,4.583-10.634,6.874-15.95c-1.523-0.642-3.046-1.284-4.569-1.926
				c-5.662,14.695-11.324,29.39-16.986,44.084c-9.031,23.439-18.062,46.878-27.093,70.317c-2.082,5.403-4.163,10.805-6.245,16.208
				c1.607,0.443,3.214,0.886,4.821,1.329c4.964-14.945,9.929-29.891,14.893-44.836c7.918-23.838,15.836-47.677,23.755-71.515
				c1.825-5.495,3.65-10.989,5.475-16.484c-1.607-0.443-3.214-0.886-4.821-1.329c-4.449,15.107-8.897,30.214-13.346,45.322
				c-7.096,24.097-14.192,48.193-21.288,72.29c-1.636,5.554-3.271,11.108-4.907,16.662c1.607,0.443,3.214,0.886,4.821,1.329
				c3.811-15.281,7.622-30.562,11.432-45.843c6.078-24.374,12.157-48.748,18.235-73.122c1.401-5.618,2.802-11.236,4.203-16.854
				c-1.607-0.443-3.214-0.886-4.821-1.329c-3.365,15.386-6.729,30.772-10.094,46.157c-5.367,24.541-10.733,49.082-16.1,73.623
				c-1.237,5.657-2.474,11.313-3.711,16.97c1.607,0.443,3.214,0.886,4.821,1.329c2.797-15.499,5.594-30.999,8.391-46.498
				c4.461-24.722,8.923-49.444,13.384-74.166c1.028-5.698,2.057-11.397,3.085-17.095c-1.607-0.443-3.214-0.886-4.821-1.329
				c-2.426,15.562-4.853,31.124-7.279,46.686c-3.87,24.822-7.74,49.644-11.611,74.466c-0.892,5.721-1.784,11.443-2.676,17.164
				c1.637,0.222,3.274,0.443,4.911,0.665c1.934-15.631,3.868-31.262,5.801-46.893c3.085-24.932,6.169-49.864,9.254-74.797
				c0.711-5.747,1.422-11.493,2.133-17.24c-1.667,0-3.333,0-5,0c-1.639,15.665-3.278,31.33-4.916,46.995
				c-2.614,24.986-5.228,49.973-7.842,74.959c-0.602,5.759-1.205,11.518-1.807,17.278c1.667,0,3.333,0,5,0
				c1.219-15.703,2.438-31.407,3.657-47.11c1.944-25.048,3.889-50.095,5.833-75.143c0.448-5.773,0.896-11.547,1.345-17.32
				c-1.667,0-3.333,0-5,0c-0.996,15.719-1.992,31.439-2.988,47.158c-1.589,25.073-3.177,50.146-4.766,75.219
				c-0.366,5.779-0.732,11.558-1.099,17.338c1.667,0,3.333,0,5,0c0.646-15.738,1.292-31.475,1.938-47.213
				c1.03-25.102,2.06-50.205,3.09-75.307c0.237-5.786,0.475-11.572,0.712-17.358c-1.667,0-3.333,0-5,0
				c-0.491,15.743-0.982,31.487-1.472,47.23c-0.783,25.111-1.566,50.223-2.349,75.334c-0.18,5.788-0.361,11.576-0.541,17.364
				c1.667,0,3.333,0,5,0c0.207-15.75,0.414-31.5,0.62-47.25c0.33-25.122,0.66-50.243,0.99-75.365
				c0.076-5.79,0.152-11.581,0.228-17.371c-1.667,0-3.333,0-5,0c-0.116,15.751-0.233,31.502-0.349,47.253
				c-0.186,25.123-0.372,50.247-0.557,75.37c-0.043,5.791-0.086,11.582-0.128,17.372c1.667,0,3.333,0,5,0
				c-0.104-15.751-0.208-31.502-0.312-47.253c-0.166-25.124-0.331-50.247-0.497-75.371c-0.038-5.791-0.076-11.582-0.115-17.373
				c-1.667,0-3.333,0-5,0c0.132,15.751,0.263,31.502,0.395,47.253c0.21,25.123,0.42,50.247,0.629,75.37
				c0.048,5.791,0.097,11.582,0.145,17.372c1.667,0,3.333,0,5,0c-0.289-15.749-0.578-31.498-0.867-47.246
				c-0.461-25.12-0.922-50.24-1.384-75.36c-0.106-5.79-0.213-11.58-0.319-17.37c-0.059-3.215-4.956-3.224-5,0
				c-0.213,15.765-0.426,31.529-0.639,47.294c-0.34,25.145-0.679,50.291-1.019,75.436c-0.078,5.796-0.157,11.592-0.235,17.388
				c1.667,0,3.333,0,5,0c-1.666-15.678-3.331-31.356-4.997-47.034c-2.657-25.007-5.314-50.014-7.971-75.021
				c-0.612-5.764-1.225-11.528-1.837-17.292c-0.332-3.128-5.143-3.275-5,0c0.689,15.751,1.378,31.502,2.067,47.253
				c1.099,25.123,2.197,50.247,3.296,75.371c0.253,5.791,0.507,11.582,0.76,17.373c1.637-0.222,3.274-0.443,4.911-0.665
				c-2.569-15.555-5.137-31.111-7.706-46.666c-4.097-24.812-8.194-49.623-12.291-74.435c-0.944-5.719-1.889-11.438-2.833-17.157
				c-0.454-2.752-5.199-2.143-4.911,0.665c1.609,15.684,3.219,31.367,4.829,47.051c2.567,25.016,5.134,50.032,7.702,75.048
				c0.592,5.766,1.183,11.532,1.775,17.298c1.637-0.222,3.274-0.443,4.911-0.665c-3.489-15.375-6.977-30.75-10.466-46.125
				c-5.565-24.524-11.129-49.048-16.694-73.572c-1.283-5.653-2.565-11.305-3.848-16.958c-0.723-3.187-5.333-1.785-4.821,1.329
				c2.555,15.557,5.111,31.115,7.666,46.672c4.076,24.815,8.152,49.629,12.228,74.444c0.94,5.72,1.879,11.439,2.819,17.159
				c1.607-0.443,3.214-0.886,4.821-1.329c-4.431-15.13-8.862-30.261-13.293-45.391c-7.068-24.134-14.135-48.267-21.203-72.401
				c-1.629-5.563-3.258-11.125-4.887-16.688c-0.906-3.095-5.542-1.806-4.821,1.329c3.532,15.365,7.064,30.73,10.595,46.095
				c5.633,24.508,11.267,49.015,16.9,73.523c1.298,5.649,2.597,11.298,3.895,16.947c1.607-0.443,3.214-0.886,4.821-1.329
				c-5.399-14.812-10.798-29.625-16.197-44.437c-8.611-23.626-17.223-47.253-25.834-70.879c-1.985-5.446-3.97-10.892-5.955-16.337
				c-1.085-2.977-5.762-1.798-4.821,1.329c4.541,15.097,9.083,30.194,13.624,45.291c7.244,24.08,14.488,48.161,21.732,72.241
				c1.67,5.55,3.339,11.101,5.009,16.651c1.523-0.642,3.046-1.284,4.569-1.926c-6.393-14.411-12.787-28.822-19.18-43.232
				c-10.198-22.986-20.395-45.972-30.593-68.958c-2.351-5.298-4.701-10.596-7.052-15.894c-1.137-2.563-5.574-0.726-4.569,1.926
				c5.585,14.743,11.17,29.485,16.755,44.228c8.908,23.515,17.816,47.03,26.725,70.546c2.053,5.42,4.107,10.84,6.16,16.26
				c1.523-0.642,3.046-1.284,4.569-1.926c-7.412-13.914-14.823-27.828-22.235-41.743c-11.822-22.194-23.644-44.387-35.466-66.581
				c-2.725-5.116-5.45-10.231-8.175-15.347c-1.532-2.877-5.656-0.35-4.317,2.524c6.658,14.29,13.317,28.579,19.975,42.869
				c10.62,22.793,21.241,45.585,31.861,68.378c2.448,5.254,4.896,10.507,7.344,15.761c1.439-0.841,2.878-1.682,4.317-2.524
				c-8.447-13.311-16.894-26.622-25.341-39.932c-13.473-21.231-26.946-42.463-40.42-63.694c-3.105-4.894-6.211-9.787-9.317-14.681
				c-1.719-2.709-5.909-0.294-4.317,2.524c7.753,13.726,15.507,27.452,23.26,41.178c12.367,21.894,24.734,43.787,37.101,65.681
				c2.851,5.046,5.701,10.093,8.552,15.139c1.439-0.841,2.878-1.682,4.317-2.524c-9.487-12.591-18.973-25.181-28.46-37.772
				C112.283,102.76,97.152,82.677,82.02,62.595c-3.488-4.629-6.975-9.258-10.463-13.887c-1.888-2.506-6.16-0.19-4.317,2.524
				c8.855,13.042,17.711,26.084,26.566,39.126c14.125,20.802,28.249,41.605,42.374,62.407c3.256,4.795,6.511,9.59,9.767,14.385
				c1.309-1.01,2.618-2.02,3.926-3.03c-10.512-11.747-21.024-23.495-31.537-35.242c-16.767-18.738-33.535-37.475-50.302-56.213
				c-3.865-4.319-7.73-8.638-11.594-12.957c-2.178-2.434-5.528,1.085-3.536,3.536c9.943,12.232,19.887,24.464,29.83,36.697
				c15.86,19.511,31.72,39.022,47.581,58.533c3.656,4.497,7.311,8.994,10.967,13.492c1.179-1.179,2.357-2.357,3.536-3.536
				c-11.012-11.264-22.024-22.529-33.035-33.793c-17.564-17.967-35.129-35.935-52.693-53.902
				c-4.048-4.141-8.097-8.283-12.145-12.424c-2.255-2.307-5.756,1.206-3.536,3.536c10.869,11.402,21.737,22.805,32.606,34.207
				c17.336,18.187,34.672,36.375,52.008,54.562c3.996,4.192,7.992,8.384,11.988,12.576c1.179-1.179,2.357-2.357,3.536-3.536
				c-11.424-10.846-22.848-21.692-34.272-32.538c-18.222-17.3-36.443-34.6-54.665-51.9c-4.2-3.988-8.4-7.975-12.6-11.963
				c-2.332-2.214-5.853,1.289-3.536,3.536c11.311,10.963,22.622,21.927,33.933,32.89c18.042,17.487,36.083,34.974,54.125,52.461
				c4.159,4.031,8.317,8.061,12.476,12.092c1.179-1.179,2.357-2.357,3.536-3.536c-11.869-10.357-23.738-20.713-35.608-31.07
				c-18.932-16.519-37.864-33.038-56.796-49.558c-4.364-3.808-8.727-7.615-13.091-11.423c-2.412-2.104-5.954,1.392-3.536,3.536
				c11.789,10.448,23.577,20.896,35.366,31.344c18.803,16.665,37.607,33.33,56.41,49.995c4.334,3.841,8.668,7.682,13.002,11.524
				c1.179-1.179,2.357-2.357,3.536-3.536c-12.346-9.783-24.692-19.565-37.038-29.348C85.095,126.56,65.403,110.956,45.71,95.352
				c-4.539-3.597-9.078-7.193-13.617-10.79c-2.492-1.975-6.053,1.521-3.536,3.536c12.299,9.841,24.598,19.683,36.897,29.524
				c19.618,15.698,39.235,31.395,58.853,47.093c4.522,3.618,9.043,7.236,13.565,10.855c1.01-1.309,2.02-2.618,3.03-3.926
				c-12.851-9.109-25.702-18.217-38.553-27.326c-20.498-14.529-40.996-29.057-61.494-43.586c-4.725-3.349-9.449-6.698-14.174-10.046
				c-2.631-1.865-5.126,2.467-2.524,4.317c12.838,9.127,25.675,18.254,38.513,27.381c20.477,14.558,40.953,29.116,61.43,43.674
				c4.72,3.356,9.44,6.711,14.159,10.067c0.841-1.439,1.682-2.878,2.524-4.317c-13.377-8.317-26.753-16.634-40.13-24.951
				c-21.336-13.266-42.672-26.532-64.008-39.798c-4.918-3.058-9.836-6.115-14.754-9.173c-0.841,1.439-1.682,2.878-2.524,4.317
				c13.395,8.286,26.79,16.573,40.185,24.859c21.366,13.217,42.731,26.435,64.097,39.652c4.925,3.047,9.849,6.093,14.774,9.14
				c0.841-1.439,1.682-2.878,2.524-4.317c-13.91-7.39-27.819-14.78-41.729-22.169c-22.187-11.787-44.373-23.574-66.56-35.361
				c-5.114-2.717-10.228-5.434-15.342-8.151c-0.841,1.439-1.682,2.878-2.524,4.317c13.955,7.302,27.911,14.604,41.866,21.906
				c22.26,11.647,44.519,23.294,66.779,34.941c5.131,2.685,10.261,5.369,15.392,8.054c0.841-1.439,1.682-2.878,2.524-4.317
				c-14.43-6.311-28.861-12.623-43.291-18.934c-23.017-10.067-46.034-20.134-69.051-30.201c-5.305-2.32-10.611-4.641-15.916-6.961
				c-0.841,1.439-1.682,2.878-2.524,4.317c14.495,6.16,28.99,12.32,43.485,18.481c23.12,9.826,46.24,19.652,69.361,29.477
				c5.329,2.265,10.658,4.53,15.987,6.794c0.642-1.523,1.284-3.046,1.926-4.569c-14.91-5.073-29.82-10.146-44.73-15.219
				c-23.782-8.092-47.564-16.184-71.347-24.275c-5.482-1.865-10.963-3.73-16.445-5.595c-0.443,1.607-0.886,3.214-1.329,4.821
				c14.981,4.857,29.963,9.714,44.944,14.571c23.896,7.747,47.792,15.495,71.688,23.242c5.508,1.786,11.016,3.571,16.524,5.357
				c0.443-1.607,0.886-3.214,1.329-4.821c-15.313-3.68-30.626-7.36-45.939-11.039c-24.425-5.869-48.849-11.739-73.274-17.608
				c-5.63-1.353-11.26-2.706-16.889-4.059c-0.443,1.607-0.886,3.214-1.329,4.821c15.376,3.405,30.752,6.811,46.128,10.216
				c24.525,5.432,49.05,10.864,73.576,16.295c5.653,1.252,11.306,2.504,16.959,3.756c0.443-1.607,0.886-3.214,1.329-4.821
				c-15.6-2.155-31.2-4.311-46.8-6.466c-24.883-3.438-49.766-6.876-74.648-10.313c-5.735-0.792-11.471-1.585-17.206-2.377
				C0.724,145.212-0.637,150.029,2.542,150.468L2.542,150.468z"/>
		</g>
	</g>
</g>
<g id="Layer_1">
</g>
</svg>
