<?xml version="1.0" encoding="iso-8859-1"?>
<!-- Generator: Adobe Illustrator 26.0.1, SVG Export Plug-In . SVG Version: 6.00 Build 0)  -->
<svg version="1.1" xmlns="http://www.w3.org/2000/svg" xmlns:xlink="http://www.w3.org/1999/xlink" x="0px" y="0px"
	 viewBox="0 0 500 500" style="enable-background:new 0 0 500 500;" xml:space="preserve">
<g id="Water">
	<g>
		<polyline style="fill:#FFFFFF;" points="5.952,332.041 -33.128,466.766 20.409,337.109 -13.706,473.174 34.678,341.509 
			6.394,478.903 48.647,345.148 27.276,483.782 62.167,347.925 49.099,487.581 75.043,349.744 72.017,489.97 87.008,350.527 
			96.183,490.472 97.737,350.251 121.65,488.424 106.895,348.996 148.186,482.98 114.304,346.955 175.036,473.291 120.163,344.319 
			200.769,458.978 123.776,342.013 211.876,450.857 125.677,340.503 222.388,441.771 127.496,338.793 231.902,432.114 
			129.615,336.465 240.05,422.581 132.483,332.892 246.55,414.154 136.683,327.28 251.122,408.017 143.136,318.832 253.208,405.376 
			153.381,307.223 251.846,406.658 169.03,293.904 246.883,410.093 189.116,282.723 241.046,412.613 209.535,276.292 
			235.007,413.646 251.683,274.906 230.089,413.138 286.492,284.999 232.509,414.327 311.905,298.806 240.03,419.226 
			331.284,312.736 250.335,427.293 347.083,325.737 262.571,437.704 360.507,337.287 276.886,449.918 371.84,346.697 
			294.432,463.659 380.231,352.788 318.253,478.5 382.233,354.026 355.055,491.113 371.324,352.743 405.526,487.661 359.48,355.599 
			425.665,478.807 353.592,358.925 442.573,466.885 350.214,361.746 455.07,454.462 349.548,362.452 463.808,443.378 
			350.981,360.429 469.854,434.459 354.122,355.586 473.874,428.195 359.209,347.788 475.829,425.286 367.472,336.633 
			474.487,426.79 381.877,321.991 466.854,432.882 406.175,307.172 451.995,438.958 436.281,300.27 437.509,439.919 
			463.859,302.728 426.624,437.459 486.005,310.85 420.829,434.652 502.23,320.819 418.84,433.249 514.307,330.855 419.045,433.465 
			523.75,340.502 420.437,435.024 531.488,349.724 422.467,437.613 538.08,358.594 424.84,440.985 543.859,367.186 427.396,444.959 
			549.03,375.552 430.043,449.409 553.732,383.731 432.733,454.244 		"/>
		<polyline style="fill:none;stroke:#00A651;stroke-miterlimit:10;" points="5.952,332.041 -33.128,466.766 20.409,337.109 
			-13.706,473.174 34.678,341.509 6.394,478.903 48.647,345.148 27.276,483.782 62.167,347.925 49.099,487.581 75.043,349.744 
			72.017,489.97 87.008,350.527 96.183,490.472 97.737,350.251 121.65,488.424 106.895,348.996 148.186,482.98 114.304,346.955 
			175.036,473.291 120.163,344.319 200.769,458.978 123.776,342.013 211.876,450.857 125.677,340.503 222.388,441.771 
			127.496,338.793 231.902,432.114 129.615,336.465 240.05,422.581 132.483,332.892 246.55,414.154 136.683,327.28 251.122,408.017 
			143.136,318.832 253.208,405.376 153.381,307.223 251.846,406.658 169.03,293.904 246.883,410.093 189.116,282.723 
			241.046,412.613 209.535,276.292 235.007,413.646 251.683,274.906 230.089,413.138 286.492,284.999 232.509,414.327 
			311.905,298.806 240.03,419.226 331.284,312.736 250.335,427.293 347.083,325.737 262.571,437.704 360.507,337.287 
			276.886,449.918 371.84,346.697 294.432,463.659 380.231,352.788 318.253,478.5 382.233,354.026 355.055,491.113 371.324,352.743 
			405.526,487.661 359.48,355.599 425.665,478.807 353.592,358.925 442.573,466.885 350.214,361.746 455.07,454.462 
			349.548,362.452 463.808,443.378 350.981,360.429 469.854,434.459 354.122,355.586 473.874,428.195 359.209,347.788 
			475.829,425.286 367.472,336.633 474.487,426.79 381.877,321.991 466.854,432.882 406.175,307.172 451.995,438.958 
			436.281,300.27 437.509,439.919 463.859,302.728 426.624,437.459 486.005,310.85 420.829,434.652 502.23,320.819 418.84,433.249 
			514.307,330.855 419.045,433.465 523.75,340.502 420.437,435.024 531.488,349.724 422.467,437.613 538.08,358.594 424.84,440.985 
			543.859,367.186 427.396,444.959 549.03,375.552 430.043,449.409 553.732,383.731 432.733,454.244 		"/>
	</g>
</g>
<g id="Layer_1">
</g>
</svg>
