<?xml version="1.0" encoding="iso-8859-1"?>
<!-- Generator: Adobe Illustrator 26.0.1, SVG Export Plug-In . SVG Version: 6.00 Build 0)  -->
<svg version="1.1" xmlns="http://www.w3.org/2000/svg" xmlns:xlink="http://www.w3.org/1999/xlink" x="0px" y="0px"
	 viewBox="0 0 500 500" style="enable-background:new 0 0 500 500;" xml:space="preserve">
<g id="Stars">
	<polygon style="fill:#BA4699;stroke:#70BF44;stroke-miterlimit:10;" points="134.333,165.667 98.897,164.889 78.167,193.639 
		67.957,159.697 34.208,148.866 63.333,128.667 63.205,93.222 91.416,114.68 125.086,103.606 113.396,137.067 	"/>
	<polygon style="fill:#BA4699;stroke:#70BF44;stroke-miterlimit:10;" points="284.333,140.333 257.534,154.053 253.643,183.909 
		232.313,162.66 202.716,168.186 216.333,141.333 201.933,114.893 231.679,119.546 252.375,97.679 257.142,127.407 	"/>
	<polygon style="fill:#BA4699;stroke:#70BF44;stroke-miterlimit:10;" points="323.667,73 324.244,76.171 327.184,77.493 
		324.346,79.022 323.998,82.226 321.667,80 318.512,80.658 319.908,77.754 318.307,74.957 321.501,75.387 	"/>
	<polygon style="fill:#BA4699;stroke:#70BF44;stroke-miterlimit:10;" points="383,64.333 383.387,66.117 385.076,66.81 
		383.498,67.729 383.361,69.549 382,68.333 380.227,68.766 380.962,67.095 380.003,65.542 381.819,65.725 	"/>
	<polygon style="fill:#BA4699;stroke:#70BF44;stroke-miterlimit:10;" points="436.333,169 426.465,163.009 415.935,167.742 
		418.583,156.505 410.828,147.954 422.333,147 428.07,136.982 432.532,147.629 443.833,149.989 435.086,157.523 	"/>
	<polygon style="fill:#BA4699;stroke:#70BF44;stroke-miterlimit:10;" points="353.667,230.333 409.823,206.074 421.675,146.061 
		462.101,191.972 522.839,184.699 491.667,237.333 517.353,292.852 457.662,279.47 412.799,321.055 407.08,260.15 	"/>
</g>
<g id="Layer_1">
</g>
</svg>
